<?xml version="1.0" encoding="UTF-8" standalone="yes"?><svg id="logo" width="512" height="512" version="1.1" xmlns="http://www.w3.org/2000/svg"> <path d="M431.692193816531,136 L223.846096908265,16 L16,136 L16,376 L223.846096908265,496 L431.692193816531,376 L431.692193816531,136 Z" stroke="saddlebrown" stroke-width="16" fill="white" stroke-linecap="round"></path> <text x="223.846096908265" y="160" text-anchor="middle" fill="saddlebrown" stroke="saddlebrown" font-size="64" font-family="Geneva">TKCat</text> <path d="M223.846096908265,480.987803063838 L225.52605745916,480.291674014848 L227.175819038335,479.526723142379 L228.792563703796,478.694257051709 L230.373529909424,477.795697670215 L231.916017221948,476.832579818592 L233.417390933524,475.806548589242 L234.875086562058,474.719356536307 L236.286614231571,473.572860682145 L237.649562925137,472.369019345374 L238.961604603111,471.10988879588 L240.220498179638,469.797619742526 L241.424093350625,468.434453659546 L242.57033426666,467.022718957904 L243.657263044583,465.564827008158 L244.683023111733,464.06326802162 L245.645862377137,462.52060679685 L246.544136224244,460.93947833875 L247.376310320078,459.322583357734 L248.140963236014,457.672683656673 L248.836788875713,455.992597413485 L249.462598706046,454.285194367432 L250.01732378722,452.553390917347 L250.500016598624,450.800145140158 L250.909852657276,449.028451738228 L251.246131926122,447.241336924134 L251.508280009753,445.441853251616 L251.695849135534,443.633074401544 L251.808518918431,441.818089931794 L251.846096908265,440 L251.846096908265,440 L249.996031843655,439.305034195175 L248.128740555879,438.657777322084 L246.245453119754,438.058655760042 L244.347410147533,437.508064179314 L242.435861971649,437.006365281125 L240.512067821067,436.553889558732 L238.577294991765,436.150935079714 L236.632818011905,435.797767289617 L234.679917802242,435.494618837096 L232.719880832318,435.241689420655 L230.753998273005,435.039145657097 L228.783565145944,434.887120971767 L226.809879470457,434.785715510656 L224.834241408474,434.734996074431 L222.857952408057,434.734996074431 L220.882314346074,434.785715510656 L218.908628670586,434.887120971767 L216.938195543525,435.039145657097 L214.972312984212,435.241689420655 L213.012276014289,435.494618837096 L211.059375804626,435.797767289617 L209.114898824766,436.150935079714 L207.180125995463,436.553889558732 L205.256331844881,437.006365281125 L203.344783668998,437.508064179314 L201.446740696776,438.058655760042 L199.563453260652,438.657777322084 L197.696161972876,439.305034195175 L195.846096908265,440 L195.846096908265,440 L195.8836748981,441.818089931794 L195.996344680997,443.633074401544 L196.183913806777,445.441853251616 L196.446061890409,447.241336924134 L196.782341159254,449.028451738228 L197.192177217907,450.800145140158 L197.674870029311,452.553390917347 L198.229595110485,454.285194367432 L198.855404940817,455.992597413485 L199.551230580516,457.672683656673 L200.315883496453,459.322583357734 L201.148057592287,460.93947833875 L202.046331439394,462.52060679685 L203.009170704798,464.06326802162 L204.034930771947,465.564827008158 L205.12185954987,467.022718957904 L206.268100465905,468.434453659546 L207.471695636893,469.797619742526 L208.73058921342,471.10988879588 L210.042630891394,472.369019345374 L211.40557958496,473.572860682145 L212.817107254473,474.719356536307 L214.274802883007,475.806548589242 L215.776176594582,476.832579818592 L217.318663907106,477.795697670215 L218.899630112735,478.694257051709 L220.516374778196,479.526723142379 L222.16613635737,480.291674014848 L223.846096908265,480.987803063838 Z" stroke="black" stroke-width="4" fill="burlywood" stroke-linejoin="round"></path> <path d="M251.846096908265,440 L252.176727458702,439.104501438471 L252.466132952094,438.199146048075 L252.713892262694,437.285251248399 L252.919644865815,436.364146885073 L253.083091362444,435.437173294658 L253.203993914912,434.505679354268 L253.282176592979,433.571020518761 L253.317525629839,432.634556848363 L253.309989587665,431.697651029591 L253.25957943246,430.761666392349 L253.166368518099,429.82796492609 L253.030492479588,428.897905297936 L252.852149035697,427.972840875618 L252.631597701253,427.054117758141 L252.369159409505,426.143072817018 L252.065216045125,425.241031750934 L251.720209888511,424.349307156668 L251.334642972204,423.469196619079 L250.909076350366,422.601980822939 L250.44412928236,421.748921689355 L249.940478331644,420.911260539497 L249.398856381279,420.0902162883 L248.820051567473,419.286983670769 L248.204906132741,418.502731503478 L247.554315200315,417.738600983769 L246.869225471622,416.995704029157 L246.150633848691,416.275121659326 L245.399585983528,415.5779024231 L244.617174756542,414.905060872651 L243.804538686249,414.257576087185 L242.962860272569,413.636390248248 L242.093364276121,413.042407268711 L241.197315936025,412.476491477455 L240.2760191288,411.939466361652 L239.330814471038,411.432113368468 L238.363077368625,410.955170767958 L237.374216015322,410.509332578768 L236.365669343653,410.095247558247 L235.338904931052,409.713518258414 L234.29541686433,409.364700149156 L233.236723565572,409.049300809942 L232.164365582614,408.767779191228 L231.079903347335,408.520544946613 L229.984914905004,408.307957836738 L228.880993618002,408.130327205786 L227.769745847261,407.98791153134 L226.652788614775,407.880918048261 L225.53174725061,407.809502447133 L224.40825302782,407.773768647715 L223.283940788711,407.773768647715 L222.16044656592,407.809502447133 L221.039405201756,407.880918048261 L219.92244796927,407.98791153134 L218.811200198528,408.130327205786 L217.707278911527,408.307957836738 L216.612290469195,408.520544946613 L215.527828233916,408.767779191228 L214.455470250959,409.049300809942 L213.3967769522,409.364700149156 L212.353288885479,409.713518258414 L211.326524472877,410.095247558247 L210.317977801209,410.509332578768 L209.329116447906,410.955170767958 L208.361379345492,411.432113368468 L207.416174687731,411.939466361652 L206.494877880505,412.476491477455 L205.598829540409,413.042407268711 L204.729333543961,413.636390248248 L203.887655130281,414.257576087185 L203.075019059989,414.905060872651 L202.292607833003,415.5779024231 L201.54155996784,416.275121659326 L200.822968344909,416.995704029157 L200.137878616215,417.738600983769 L199.48728768379,418.502731503478 L198.872142249057,419.286983670769 L198.293337435252,420.0902162883 L197.751715484886,420.911260539497 L197.248064534171,421.748921689355 L196.783117466165,422.601980822939 L196.357550844326,423.469196619079 L195.97198392802,424.349307156668 L195.626977771406,425.241031750934 L195.323034407026,426.143072817018 L195.060596115278,427.054117758141 L194.840044780834,427.972840875618 L194.661701336943,428.897905297936 L194.525825298432,429.82796492609 L194.43261438407,430.761666392349 L194.382204228865,431.697651029591 L194.374668186692,432.634556848363 L194.410017223552,433.571020518761 L194.488199901619,434.505679354268 L194.609102454087,435.437173294658 L194.772548950716,436.364146885073 L194.978301553836,437.285251248399 L195.226060864436,438.199146048075 L195.515466357829,439.104501438471 L195.846096908265,440 Z" stroke="black" stroke-width="4" fill="saddlebrown" stroke-linejoin="round"></path> <path d="M223.846096908265,427.530704212493 L236.253096610207,402.377557263706 L230.746133560625,397.641877452968 L223.846096908265,427.530704212493 Z" stroke="black" stroke-width="4" fill="black" stroke-linejoin="round"></path> <path d="M115.846096908265,408.987803063838 L117.52605745916,408.291674014848 L119.175819038335,407.526723142379 L120.792563703796,406.694257051709 L122.373529909424,405.795697670215 L123.916017221948,404.832579818592 L125.417390933524,403.806548589242 L126.875086562058,402.719356536307 L128.286614231571,401.572860682145 L129.649562925137,400.369019345374 L130.961604603111,399.10988879588 L132.220498179638,397.797619742526 L133.424093350625,396.434453659546 L134.57033426666,395.022718957904 L135.657263044583,393.564827008158 L136.683023111733,392.06326802162 L137.645862377137,390.52060679685 L138.544136224244,388.93947833875 L139.376310320078,387.322583357734 L140.140963236014,385.672683656673 L140.836788875713,383.992597413485 L141.462598706046,382.285194367432 L142.01732378722,380.553390917347 L142.500016598624,378.800145140158 L142.909852657276,377.028451738228 L143.246131926122,375.241336924134 L143.508280009753,373.441853251616 L143.695849135534,371.633074401544 L143.808518918431,369.818089931794 L143.846096908265,368 L143.846096908265,368 L141.996031843655,367.305034195175 L140.128740555879,366.657777322084 L138.245453119754,366.058655760042 L136.347410147533,365.508064179314 L134.435861971649,365.006365281125 L132.512067821067,364.553889558732 L130.577294991765,364.150935079714 L128.632818011905,363.797767289617 L126.679917802242,363.494618837096 L124.719880832318,363.241689420655 L122.753998273005,363.039145657097 L120.783565145944,362.887120971767 L118.809879470457,362.785715510656 L116.834241408474,362.734996074431 L114.857952408057,362.734996074431 L112.882314346074,362.785715510656 L110.908628670586,362.887120971767 L108.938195543525,363.039145657097 L106.972312984212,363.241689420655 L105.012276014289,363.494618837096 L103.059375804626,363.797767289617 L101.114898824766,364.150935079714 L99.1801259954632,364.553889558732 L97.2563318448813,365.006365281125 L95.3447836689977,365.508064179314 L93.4467406967762,366.058655760042 L91.5634532606516,366.657777322084 L89.6961619728756,367.305034195175 L87.8460969082653,368 L87.8460969082653,368 L87.8836748980995,369.818089931794 L87.9963446809967,371.633074401544 L88.1839138067771,373.441853251616 L88.4460618904087,375.241336924134 L88.7823411592543,377.028451738228 L89.1921772179071,378.800145140158 L89.6748700293105,380.553390917347 L90.2295951104846,382.285194367432 L90.8554049408174,383.992597413485 L91.5512305805162,385.672683656673 L92.315883496453,387.322583357734 L93.1480575922867,388.93947833875 L94.0463314393941,390.52060679685 L95.0091707047981,392.06326802162 L96.0349307719474,393.564827008158 L97.1218595498705,395.022718957904 L98.2681004659052,396.434453659546 L99.4716956368928,397.797619742526 L100.73058921342,399.10988879588 L102.042630891394,400.369019345374 L103.40557958496,401.572860682145 L104.817107254473,402.719356536307 L106.274802883007,403.806548589242 L107.776176594582,404.832579818592 L109.318663907106,405.795697670215 L110.899630112735,406.694257051709 L112.516374778196,407.526723142379 L114.16613635737,408.291674014848 L115.846096908265,408.987803063838 Z" stroke="black" stroke-width="4" fill="burlywood" stroke-linejoin="round"></path> <path d="M143.846096908265,368 L144.176727458702,367.104501438471 L144.466132952094,366.199146048075 L144.713892262694,365.285251248399 L144.919644865815,364.364146885073 L145.083091362444,363.437173294658 L145.203993914912,362.505679354268 L145.282176592979,361.571020518761 L145.317525629839,360.634556848363 L145.309989587665,359.697651029591 L145.25957943246,358.761666392349 L145.166368518099,357.82796492609 L145.030492479588,356.897905297936 L144.852149035697,355.972840875618 L144.631597701253,355.054117758141 L144.369159409505,354.143072817018 L144.065216045125,353.241031750934 L143.720209888511,352.349307156668 L143.334642972204,351.469196619079 L142.909076350366,350.601980822939 L142.44412928236,349.748921689355 L141.940478331644,348.911260539497 L141.398856381279,348.0902162883 L140.820051567473,347.286983670769 L140.204906132741,346.502731503478 L139.554315200315,345.738600983769 L138.869225471622,344.995704029157 L138.150633848691,344.275121659326 L137.399585983528,343.5779024231 L136.617174756542,342.905060872651 L135.804538686249,342.257576087185 L134.962860272569,341.636390248248 L134.093364276121,341.042407268711 L133.197315936025,340.476491477455 L132.2760191288,339.939466361652 L131.330814471038,339.432113368468 L130.363077368625,338.955170767958 L129.374216015322,338.509332578768 L128.365669343653,338.095247558247 L127.338904931052,337.713518258414 L126.29541686433,337.364700149156 L125.236723565572,337.049300809942 L124.164365582614,336.767779191228 L123.079903347335,336.520544946613 L121.984914905004,336.307957836738 L120.880993618002,336.130327205786 L119.769745847261,335.98791153134 L118.652788614775,335.880918048261 L117.53174725061,335.809502447133 L116.40825302782,335.773768647715 L115.283940788711,335.773768647715 L114.16044656592,335.809502447133 L113.039405201756,335.880918048261 L111.92244796927,335.98791153134 L110.811200198528,336.130327205786 L109.707278911527,336.307957836738 L108.612290469195,336.520544946613 L107.527828233916,336.767779191228 L106.455470250959,337.049300809942 L105.3967769522,337.364700149156 L104.353288885479,337.713518258414 L103.326524472877,338.095247558247 L102.317977801209,338.509332578768 L101.329116447906,338.955170767958 L100.361379345492,339.432113368468 L99.416174687731,339.939466361652 L98.4948778805053,340.476491477455 L97.5988295404092,341.042407268711 L96.7293335439614,341.636390248248 L95.8876551302815,342.257576087185 L95.0750190599886,342.905060872651 L94.2926078330026,343.5779024231 L93.54155996784,344.275121659326 L92.8229683449091,344.995704029157 L92.1378786162153,345.738600983769 L91.4872876837898,346.502731503478 L90.8721422490574,347.286983670769 L90.2933374352519,348.0902162883 L89.7517154848863,348.911260539497 L89.2480645341709,349.748921689355 L88.7831174661646,350.601980822939 L88.3575508443261,351.469196619079 L87.97198392802,352.349307156668 L87.6269777714057,353.241031750934 L87.323034407026,354.143072817018 L87.0605961152781,355.054117758141 L86.8400447808336,355.972840875618 L86.661701336943,356.897905297936 L86.5258252984317,357.82796492609 L86.4326143840703,358.761666392349 L86.3822042288654,359.697651029591 L86.3746681866916,360.634556848363 L86.4100172235516,361.571020518761 L86.4881999016188,362.505679354268 L86.6091024540868,363.437173294658 L86.7725489507158,364.364146885073 L86.9783015538364,365.285251248399 L87.2260608644363,366.199146048075 L87.5154663578285,367.104501438471 L87.8460969082653,368 Z" stroke="black" stroke-width="4" fill="saddlebrown" stroke-linejoin="round"></path> <path d="M115.846096908265,355.530704212493 L128.253096610207,330.377557263706 L122.746133560625,325.641877452968 L115.846096908265,355.530704212493 Z" stroke="black" stroke-width="4" fill="black" stroke-linejoin="round"></path> <path d="M187.846096908265,408.987803063838 L189.52605745916,408.291674014848 L191.175819038335,407.526723142379 L192.792563703796,406.694257051709 L194.373529909424,405.795697670215 L195.916017221948,404.832579818592 L197.417390933524,403.806548589242 L198.875086562058,402.719356536307 L200.286614231571,401.572860682145 L201.649562925137,400.369019345374 L202.961604603111,399.10988879588 L204.220498179638,397.797619742526 L205.424093350625,396.434453659546 L206.57033426666,395.022718957904 L207.657263044583,393.564827008158 L208.683023111733,392.06326802162 L209.645862377137,390.52060679685 L210.544136224244,388.93947833875 L211.376310320078,387.322583357734 L212.140963236014,385.672683656673 L212.836788875713,383.992597413485 L213.462598706046,382.285194367432 L214.01732378722,380.553390917347 L214.500016598624,378.800145140158 L214.909852657276,377.028451738228 L215.246131926122,375.241336924134 L215.508280009753,373.441853251616 L215.695849135534,371.633074401544 L215.808518918431,369.818089931794 L215.846096908265,368 L215.846096908265,368 L213.996031843655,367.305034195175 L212.128740555879,366.657777322084 L210.245453119754,366.058655760042 L208.347410147533,365.508064179314 L206.435861971649,365.006365281125 L204.512067821067,364.553889558732 L202.577294991765,364.150935079714 L200.632818011905,363.797767289617 L198.679917802242,363.494618837096 L196.719880832318,363.241689420655 L194.753998273005,363.039145657097 L192.783565145944,362.887120971767 L190.809879470457,362.785715510656 L188.834241408474,362.734996074431 L186.857952408057,362.734996074431 L184.882314346074,362.785715510656 L182.908628670586,362.887120971767 L180.938195543525,363.039145657097 L178.972312984212,363.241689420655 L177.012276014289,363.494618837096 L175.059375804626,363.797767289617 L173.114898824766,364.150935079714 L171.180125995463,364.553889558732 L169.256331844881,365.006365281125 L167.344783668998,365.508064179314 L165.446740696776,366.058655760042 L163.563453260652,366.657777322084 L161.696161972876,367.305034195175 L159.846096908265,368 L159.846096908265,368 L159.8836748981,369.818089931794 L159.996344680997,371.633074401544 L160.183913806777,373.441853251616 L160.446061890409,375.241336924134 L160.782341159254,377.028451738228 L161.192177217907,378.800145140158 L161.674870029311,380.553390917347 L162.229595110485,382.285194367432 L162.855404940817,383.992597413485 L163.551230580516,385.672683656673 L164.315883496453,387.322583357734 L165.148057592287,388.93947833875 L166.046331439394,390.52060679685 L167.009170704798,392.06326802162 L168.034930771947,393.564827008158 L169.12185954987,395.022718957904 L170.268100465905,396.434453659546 L171.471695636893,397.797619742526 L172.73058921342,399.10988879588 L174.042630891394,400.369019345374 L175.40557958496,401.572860682145 L176.817107254473,402.719356536307 L178.274802883007,403.806548589242 L179.776176594582,404.832579818592 L181.318663907106,405.795697670215 L182.899630112735,406.694257051709 L184.516374778196,407.526723142379 L186.16613635737,408.291674014848 L187.846096908265,408.987803063838 Z" stroke="black" stroke-width="4" fill="burlywood" stroke-linejoin="round"></path> <path d="M215.846096908265,368 L216.176727458702,367.104501438471 L216.466132952094,366.199146048075 L216.713892262694,365.285251248399 L216.919644865815,364.364146885073 L217.083091362444,363.437173294658 L217.203993914912,362.505679354268 L217.282176592979,361.571020518761 L217.317525629839,360.634556848363 L217.309989587665,359.697651029591 L217.25957943246,358.761666392349 L217.166368518099,357.82796492609 L217.030492479588,356.897905297936 L216.852149035697,355.972840875618 L216.631597701253,355.054117758141 L216.369159409505,354.143072817018 L216.065216045125,353.241031750934 L215.720209888511,352.349307156668 L215.334642972204,351.469196619079 L214.909076350366,350.601980822939 L214.44412928236,349.748921689355 L213.940478331644,348.911260539497 L213.398856381279,348.0902162883 L212.820051567473,347.286983670769 L212.204906132741,346.502731503478 L211.554315200315,345.738600983769 L210.869225471622,344.995704029157 L210.150633848691,344.275121659326 L209.399585983528,343.5779024231 L208.617174756542,342.905060872651 L207.804538686249,342.257576087185 L206.962860272569,341.636390248248 L206.093364276121,341.042407268711 L205.197315936025,340.476491477455 L204.2760191288,339.939466361652 L203.330814471038,339.432113368468 L202.363077368625,338.955170767958 L201.374216015322,338.509332578768 L200.365669343653,338.095247558247 L199.338904931052,337.713518258414 L198.29541686433,337.364700149156 L197.236723565572,337.049300809942 L196.164365582614,336.767779191228 L195.079903347335,336.520544946613 L193.984914905004,336.307957836738 L192.880993618002,336.130327205786 L191.769745847261,335.98791153134 L190.652788614775,335.880918048261 L189.53174725061,335.809502447133 L188.40825302782,335.773768647715 L187.283940788711,335.773768647715 L186.16044656592,335.809502447133 L185.039405201756,335.880918048261 L183.92244796927,335.98791153134 L182.811200198528,336.130327205786 L181.707278911527,336.307957836738 L180.612290469195,336.520544946613 L179.527828233916,336.767779191228 L178.455470250959,337.049300809942 L177.3967769522,337.364700149156 L176.353288885479,337.713518258414 L175.326524472877,338.095247558247 L174.317977801209,338.509332578768 L173.329116447906,338.955170767958 L172.361379345492,339.432113368468 L171.416174687731,339.939466361652 L170.494877880505,340.476491477455 L169.598829540409,341.042407268711 L168.729333543961,341.636390248248 L167.887655130281,342.257576087185 L167.075019059989,342.905060872651 L166.292607833003,343.5779024231 L165.54155996784,344.275121659326 L164.822968344909,344.995704029157 L164.137878616215,345.738600983769 L163.48728768379,346.502731503478 L162.872142249057,347.286983670769 L162.293337435252,348.0902162883 L161.751715484886,348.911260539497 L161.248064534171,349.748921689355 L160.783117466165,350.601980822939 L160.357550844326,351.469196619079 L159.97198392802,352.349307156668 L159.626977771406,353.241031750934 L159.323034407026,354.143072817018 L159.060596115278,355.054117758141 L158.840044780834,355.972840875618 L158.661701336943,356.897905297936 L158.525825298432,357.82796492609 L158.43261438407,358.761666392349 L158.382204228865,359.697651029591 L158.374668186692,360.634556848363 L158.410017223552,361.571020518761 L158.488199901619,362.505679354268 L158.609102454087,363.437173294658 L158.772548950716,364.364146885073 L158.978301553836,365.285251248399 L159.226060864436,366.199146048075 L159.515466357829,367.104501438471 L159.846096908265,368 Z" stroke="black" stroke-width="4" fill="saddlebrown" stroke-linejoin="round"></path> <path d="M187.846096908265,355.530704212493 L200.253096610207,330.377557263706 L194.746133560625,325.641877452968 L187.846096908265,355.530704212493 Z" stroke="black" stroke-width="4" fill="black" stroke-linejoin="round"></path> <path d="M259.846096908265,408.987803063838 L261.52605745916,408.291674014848 L263.175819038335,407.526723142379 L264.792563703796,406.694257051709 L266.373529909425,405.795697670215 L267.916017221948,404.832579818592 L269.417390933524,403.806548589242 L270.875086562058,402.719356536307 L272.286614231571,401.572860682145 L273.649562925137,400.369019345374 L274.961604603111,399.10988879588 L276.220498179638,397.797619742526 L277.424093350625,396.434453659546 L278.57033426666,395.022718957904 L279.657263044583,393.564827008158 L280.683023111733,392.06326802162 L281.645862377137,390.52060679685 L282.544136224244,388.93947833875 L283.376310320078,387.322583357734 L284.140963236014,385.672683656673 L284.836788875713,383.992597413485 L285.462598706046,382.285194367432 L286.01732378722,380.553390917347 L286.500016598624,378.800145140158 L286.909852657276,377.028451738228 L287.246131926122,375.241336924134 L287.508280009753,373.441853251616 L287.695849135534,371.633074401544 L287.808518918431,369.818089931794 L287.846096908265,368 L287.846096908265,368 L285.996031843655,367.305034195175 L284.128740555879,366.657777322084 L282.245453119754,366.058655760042 L280.347410147533,365.508064179314 L278.435861971649,365.006365281125 L276.512067821067,364.553889558732 L274.577294991765,364.150935079714 L272.632818011905,363.797767289617 L270.679917802242,363.494618837096 L268.719880832318,363.241689420655 L266.753998273005,363.039145657097 L264.783565145944,362.887120971767 L262.809879470457,362.785715510656 L260.834241408474,362.734996074431 L258.857952408057,362.734996074431 L256.882314346074,362.785715510656 L254.908628670586,362.887120971767 L252.938195543525,363.039145657097 L250.972312984212,363.241689420655 L249.012276014289,363.494618837096 L247.059375804626,363.797767289617 L245.114898824766,364.150935079714 L243.180125995463,364.553889558732 L241.256331844881,365.006365281125 L239.344783668998,365.508064179314 L237.446740696776,366.058655760042 L235.563453260652,366.657777322084 L233.696161972876,367.305034195175 L231.846096908265,368 L231.846096908265,368 L231.8836748981,369.818089931794 L231.996344680997,371.633074401544 L232.183913806777,373.441853251616 L232.446061890409,375.241336924134 L232.782341159254,377.028451738228 L233.192177217907,378.800145140158 L233.674870029311,380.553390917347 L234.229595110485,382.285194367432 L234.855404940817,383.992597413485 L235.551230580516,385.672683656673 L236.315883496453,387.322583357734 L237.148057592287,388.93947833875 L238.046331439394,390.52060679685 L239.009170704798,392.06326802162 L240.034930771947,393.564827008158 L241.12185954987,395.022718957904 L242.268100465905,396.434453659546 L243.471695636893,397.797619742526 L244.73058921342,399.10988879588 L246.042630891394,400.369019345374 L247.40557958496,401.572860682145 L248.817107254473,402.719356536307 L250.274802883007,403.806548589242 L251.776176594582,404.832579818592 L253.318663907106,405.795697670215 L254.899630112735,406.694257051709 L256.516374778196,407.526723142379 L258.16613635737,408.291674014848 L259.846096908265,408.987803063838 Z" stroke="black" stroke-width="4" fill="burlywood" stroke-linejoin="round"></path> <path d="M287.846096908265,368 L288.176727458702,367.104501438471 L288.466132952094,366.199146048075 L288.713892262694,365.285251248399 L288.919644865815,364.364146885073 L289.083091362444,363.437173294658 L289.203993914912,362.505679354268 L289.282176592979,361.571020518761 L289.317525629839,360.634556848363 L289.309989587665,359.697651029591 L289.25957943246,358.761666392349 L289.166368518099,357.82796492609 L289.030492479588,356.897905297936 L288.852149035697,355.972840875618 L288.631597701253,355.054117758141 L288.369159409505,354.143072817018 L288.065216045125,353.241031750934 L287.720209888511,352.349307156668 L287.334642972204,351.469196619079 L286.909076350366,350.601980822939 L286.44412928236,349.748921689355 L285.940478331644,348.911260539497 L285.398856381279,348.0902162883 L284.820051567473,347.286983670769 L284.204906132741,346.502731503478 L283.554315200315,345.738600983769 L282.869225471622,344.995704029157 L282.150633848691,344.275121659326 L281.399585983528,343.5779024231 L280.617174756542,342.905060872651 L279.804538686249,342.257576087185 L278.962860272569,341.636390248248 L278.093364276121,341.042407268711 L277.197315936025,340.476491477455 L276.2760191288,339.939466361652 L275.330814471038,339.432113368468 L274.363077368625,338.955170767958 L273.374216015322,338.509332578768 L272.365669343653,338.095247558247 L271.338904931052,337.713518258414 L270.29541686433,337.364700149156 L269.236723565572,337.049300809942 L268.164365582614,336.767779191228 L267.079903347335,336.520544946613 L265.984914905004,336.307957836738 L264.880993618002,336.130327205786 L263.769745847261,335.98791153134 L262.652788614775,335.880918048261 L261.53174725061,335.809502447133 L260.40825302782,335.773768647715 L259.283940788711,335.773768647715 L258.16044656592,335.809502447133 L257.039405201756,335.880918048261 L255.92244796927,335.98791153134 L254.811200198528,336.130327205786 L253.707278911527,336.307957836738 L252.612290469195,336.520544946613 L251.527828233916,336.767779191228 L250.455470250959,337.049300809942 L249.3967769522,337.364700149156 L248.353288885479,337.713518258414 L247.326524472877,338.095247558247 L246.317977801209,338.509332578768 L245.329116447906,338.955170767958 L244.361379345492,339.432113368468 L243.416174687731,339.939466361652 L242.494877880505,340.476491477455 L241.598829540409,341.042407268711 L240.729333543961,341.636390248248 L239.887655130281,342.257576087185 L239.075019059989,342.905060872651 L238.292607833003,343.5779024231 L237.54155996784,344.275121659326 L236.822968344909,344.995704029157 L236.137878616215,345.738600983769 L235.48728768379,346.502731503478 L234.872142249057,347.286983670769 L234.293337435252,348.0902162883 L233.751715484886,348.911260539497 L233.248064534171,349.748921689355 L232.783117466165,350.601980822939 L232.357550844326,351.469196619079 L231.97198392802,352.349307156668 L231.626977771406,353.241031750934 L231.323034407026,354.143072817018 L231.060596115278,355.054117758141 L230.840044780834,355.972840875618 L230.661701336943,356.897905297936 L230.525825298432,357.82796492609 L230.43261438407,358.761666392349 L230.382204228865,359.697651029591 L230.374668186692,360.634556848363 L230.410017223552,361.571020518761 L230.488199901619,362.505679354268 L230.609102454087,363.437173294658 L230.772548950716,364.364146885073 L230.978301553836,365.285251248399 L231.226060864436,366.199146048075 L231.515466357829,367.104501438471 L231.846096908265,368 Z" stroke="black" stroke-width="4" fill="saddlebrown" stroke-linejoin="round"></path> <path d="M259.846096908265,355.530704212493 L272.253096610207,330.377557263706 L266.746133560625,325.641877452968 L259.846096908265,355.530704212493 Z" stroke="black" stroke-width="4" fill="black" stroke-linejoin="round"></path> <path d="M331.846096908265,408.987803063838 L333.52605745916,408.291674014848 L335.175819038335,407.526723142379 L336.792563703796,406.694257051709 L338.373529909425,405.795697670215 L339.916017221948,404.832579818592 L341.417390933524,403.806548589242 L342.875086562058,402.719356536307 L344.286614231571,401.572860682145 L345.649562925137,400.369019345374 L346.961604603111,399.10988879588 L348.220498179638,397.797619742526 L349.424093350625,396.434453659546 L350.57033426666,395.022718957904 L351.657263044583,393.564827008158 L352.683023111733,392.06326802162 L353.645862377136,390.52060679685 L354.544136224244,388.93947833875 L355.376310320078,387.322583357734 L356.140963236014,385.672683656673 L356.836788875713,383.992597413485 L357.462598706046,382.285194367432 L358.01732378722,380.553390917347 L358.500016598624,378.800145140158 L358.909852657276,377.028451738228 L359.246131926122,375.241336924134 L359.508280009753,373.441853251616 L359.695849135534,371.633074401544 L359.808518918431,369.818089931794 L359.846096908265,368 L359.846096908265,368 L357.996031843655,367.305034195175 L356.128740555879,366.657777322084 L354.245453119754,366.058655760042 L352.347410147533,365.508064179314 L350.435861971649,365.006365281125 L348.512067821067,364.553889558732 L346.577294991765,364.150935079714 L344.632818011905,363.797767289617 L342.679917802242,363.494618837096 L340.719880832318,363.241689420655 L338.753998273005,363.039145657097 L336.783565145944,362.887120971767 L334.809879470457,362.785715510656 L332.834241408474,362.734996074431 L330.857952408057,362.734996074431 L328.882314346074,362.785715510656 L326.908628670586,362.887120971767 L324.938195543525,363.039145657097 L322.972312984212,363.241689420655 L321.012276014289,363.494618837096 L319.059375804626,363.797767289617 L317.114898824766,364.150935079714 L315.180125995463,364.553889558732 L313.256331844881,365.006365281125 L311.344783668998,365.508064179314 L309.446740696776,366.058655760042 L307.563453260652,366.657777322084 L305.696161972876,367.305034195175 L303.846096908265,368 L303.846096908265,368 L303.8836748981,369.818089931794 L303.996344680997,371.633074401544 L304.183913806777,373.441853251616 L304.446061890409,375.241336924134 L304.782341159254,377.028451738228 L305.192177217907,378.800145140158 L305.674870029311,380.553390917347 L306.229595110485,382.285194367432 L306.855404940817,383.992597413485 L307.551230580516,385.672683656673 L308.315883496453,387.322583357734 L309.148057592287,388.93947833875 L310.046331439394,390.52060679685 L311.009170704798,392.06326802162 L312.034930771947,393.564827008158 L313.12185954987,395.022718957904 L314.268100465905,396.434453659546 L315.471695636893,397.797619742526 L316.73058921342,399.10988879588 L318.042630891394,400.369019345374 L319.40557958496,401.572860682145 L320.817107254473,402.719356536307 L322.274802883007,403.806548589242 L323.776176594582,404.832579818592 L325.318663907106,405.795697670215 L326.899630112735,406.694257051709 L328.516374778196,407.526723142379 L330.16613635737,408.291674014848 L331.846096908265,408.987803063838 Z" stroke="black" stroke-width="4" fill="burlywood" stroke-linejoin="round"></path> <path d="M359.846096908265,368 L360.176727458702,367.104501438471 L360.466132952094,366.199146048075 L360.713892262694,365.285251248399 L360.919644865815,364.364146885073 L361.083091362444,363.437173294658 L361.203993914912,362.505679354268 L361.282176592979,361.571020518761 L361.317525629839,360.634556848363 L361.309989587665,359.697651029591 L361.25957943246,358.761666392349 L361.166368518099,357.82796492609 L361.030492479588,356.897905297936 L360.852149035697,355.972840875618 L360.631597701253,355.054117758141 L360.369159409505,354.143072817018 L360.065216045125,353.241031750934 L359.720209888511,352.349307156668 L359.334642972205,351.469196619079 L358.909076350366,350.601980822939 L358.44412928236,349.748921689355 L357.940478331644,348.911260539497 L357.398856381279,348.0902162883 L356.820051567473,347.286983670769 L356.204906132741,346.502731503478 L355.554315200315,345.738600983769 L354.869225471622,344.995704029157 L354.150633848691,344.275121659326 L353.399585983528,343.5779024231 L352.617174756542,342.905060872651 L351.804538686249,342.257576087185 L350.962860272569,341.636390248248 L350.093364276121,341.042407268711 L349.197315936025,340.476491477455 L348.2760191288,339.939466361652 L347.330814471038,339.432113368468 L346.363077368625,338.955170767958 L345.374216015322,338.509332578768 L344.365669343653,338.095247558247 L343.338904931052,337.713518258414 L342.29541686433,337.364700149156 L341.236723565572,337.049300809942 L340.164365582614,336.767779191228 L339.079903347335,336.520544946613 L337.984914905004,336.307957836738 L336.880993618002,336.130327205786 L335.769745847261,335.98791153134 L334.652788614775,335.880918048261 L333.53174725061,335.809502447133 L332.40825302782,335.773768647715 L331.283940788711,335.773768647715 L330.16044656592,335.809502447133 L329.039405201756,335.880918048261 L327.92244796927,335.98791153134 L326.811200198528,336.130327205786 L325.707278911527,336.307957836738 L324.612290469195,336.520544946613 L323.527828233916,336.767779191228 L322.455470250959,337.049300809942 L321.3967769522,337.364700149156 L320.353288885479,337.713518258414 L319.326524472877,338.095247558247 L318.317977801209,338.509332578768 L317.329116447906,338.955170767958 L316.361379345492,339.432113368468 L315.416174687731,339.939466361652 L314.494877880505,340.476491477455 L313.598829540409,341.042407268711 L312.729333543961,341.636390248248 L311.887655130281,342.257576087185 L311.075019059989,342.905060872651 L310.292607833003,343.5779024231 L309.54155996784,344.275121659326 L308.822968344909,344.995704029157 L308.137878616215,345.738600983769 L307.48728768379,346.502731503478 L306.872142249057,347.286983670769 L306.293337435252,348.0902162883 L305.751715484886,348.911260539497 L305.248064534171,349.748921689355 L304.783117466165,350.601980822939 L304.357550844326,351.469196619079 L303.97198392802,352.349307156668 L303.626977771406,353.241031750934 L303.323034407026,354.143072817018 L303.060596115278,355.054117758141 L302.840044780834,355.972840875618 L302.661701336943,356.897905297936 L302.525825298432,357.82796492609 L302.43261438407,358.761666392349 L302.382204228865,359.697651029591 L302.374668186692,360.634556848363 L302.410017223552,361.571020518761 L302.488199901619,362.505679354268 L302.609102454087,363.437173294658 L302.772548950716,364.364146885073 L302.978301553836,365.285251248399 L303.226060864436,366.199146048075 L303.515466357828,367.104501438471 L303.846096908265,368 Z" stroke="black" stroke-width="4" fill="saddlebrown" stroke-linejoin="round"></path> <path d="M331.846096908265,355.530704212493 L344.253096610207,330.377557263706 L338.746133560625,325.641877452968 L331.846096908265,355.530704212493 Z" stroke="black" stroke-width="4" fill="black" stroke-linejoin="round"></path> <path d="M79.8460969082653,336.987803063838 L81.5260574591604,336.291674014848 L83.1758190383349,335.526723142379 L84.7925637037957,334.694257051709 L86.3735299094245,333.795697670215 L87.9160172219483,332.832579818592 L89.417390933524,331.806548589242 L90.8750865620575,330.719356536307 L92.286614231571,329.572860682145 L93.6495629251366,328.369019345374 L94.9616046031109,327.10988879588 L96.2204981796378,325.797619742526 L97.4240933506255,324.434453659546 L98.5703342666601,323.022718957904 L99.6572630445832,321.564827008158 L100.683023111733,320.06326802162 L101.645862377137,318.52060679685 L102.544136224244,316.93947833875 L103.376310320078,315.322583357734 L104.140963236014,313.672683656673 L104.836788875713,311.992597413485 L105.462598706046,310.285194367432 L106.01732378722,308.553390917347 L106.500016598624,306.800145140158 L106.909852657276,305.028451738228 L107.246131926122,303.241336924134 L107.508280009753,301.441853251616 L107.695849135534,299.633074401544 L107.808518918431,297.818089931794 L107.846096908265,296 L107.846096908265,296 L105.996031843655,295.305034195175 L104.128740555879,294.657777322084 L102.245453119754,294.058655760042 L100.347410147533,293.508064179314 L98.4358619716494,293.006365281125 L96.5120678210674,292.553889558732 L94.577294991765,292.150935079714 L92.6328180119048,291.797767289617 L90.6799178022418,291.494618837096 L88.7198808323184,291.241689420655 L86.7539982730052,291.039145657097 L84.7835651459444,290.887120971767 L82.8098794704569,290.785715510656 L80.8342414084736,290.734996074431 L78.857952408057,290.734996074431 L76.8823143460737,290.785715510656 L74.9086286705862,290.887120971767 L72.9381955435255,291.039145657097 L70.9723129842123,291.241689420655 L69.0122760142889,291.494618837096 L67.0593758046259,291.797767289617 L65.1148988247657,292.150935079714 L63.1801259954632,292.553889558732 L61.2563318448813,293.006365281125 L59.3447836689977,293.508064179314 L57.4467406967762,294.058655760042 L55.5634532606516,294.657777322084 L53.6961619728756,295.305034195175 L51.8460969082653,296 L51.8460969082653,296 L51.8836748980995,297.818089931794 L51.9963446809967,299.633074401544 L52.1839138067771,301.441853251616 L52.4460618904087,303.241336924134 L52.7823411592543,305.028451738228 L53.1921772179071,306.800145140158 L53.6748700293105,308.553390917347 L54.2295951104846,310.285194367432 L54.8554049408174,311.992597413485 L55.5512305805162,313.672683656673 L56.315883496453,315.322583357734 L57.1480575922867,316.93947833875 L58.0463314393941,318.52060679685 L59.0091707047981,320.06326802162 L60.0349307719474,321.564827008158 L61.1218595498705,323.022718957904 L62.2681004659052,324.434453659546 L63.4716956368928,325.797619742526 L64.7305892134197,327.10988879588 L66.042630891394,328.369019345374 L67.4055795849596,329.572860682145 L68.8171072544731,330.719356536307 L70.2748028830066,331.806548589242 L71.7761765945823,332.832579818592 L73.3186639071061,333.795697670215 L74.8996301127349,334.694257051709 L76.5163747781957,335.526723142379 L78.1661363573702,336.291674014848 L79.8460969082653,336.987803063838 Z" stroke="black" stroke-width="4" fill="burlywood" stroke-linejoin="round"></path> <path d="M107.846096908265,296 L108.176727458702,295.104501438471 L108.466132952094,294.199146048075 L108.713892262694,293.285251248399 L108.919644865815,292.364146885073 L109.083091362444,291.437173294658 L109.203993914912,290.505679354268 L109.282176592979,289.571020518761 L109.317525629839,288.634556848363 L109.309989587665,287.697651029591 L109.25957943246,286.761666392349 L109.166368518099,285.82796492609 L109.030492479588,284.897905297936 L108.852149035697,283.972840875618 L108.631597701253,283.054117758141 L108.369159409505,282.143072817018 L108.065216045125,281.241031750934 L107.720209888511,280.349307156668 L107.334642972204,279.469196619079 L106.909076350366,278.601980822939 L106.44412928236,277.748921689355 L105.940478331644,276.911260539497 L105.398856381279,276.0902162883 L104.820051567473,275.286983670769 L104.204906132741,274.502731503478 L103.554315200315,273.738600983769 L102.869225471622,272.995704029157 L102.150633848691,272.275121659327 L101.399585983528,271.5779024231 L100.617174756542,270.905060872651 L99.8045386862491,270.257576087185 L98.9628602725692,269.636390248248 L98.0933642761214,269.042407268711 L97.1973159360253,268.476491477455 L96.2760191287996,267.939466361652 L95.3308144710384,267.432113368468 L94.3630773686247,266.955170767958 L93.374216015322,266.509332578768 L92.3656693436533,266.095247558247 L91.3389049310521,265.713518258414 L90.2954168643303,265.364700149156 L89.2367235655719,265.049300809942 L88.1643655826143,264.767779191228 L87.0799033473352,264.520544946613 L85.9849149050036,264.307957836738 L84.8809936180023,264.130327205786 L83.769745847261,263.98791153134 L82.652788614775,263.880918048261 L81.5317472506103,263.809502447133 L80.4082530278197,263.773768647715 L79.2839407887109,263.773768647715 L78.1604465659204,263.809502447133 L77.0394052017556,263.880918048261 L75.9224479692696,263.98791153134 L74.8112001985283,264.130327205786 L73.707278911527,264.307957836738 L72.6122904691954,264.520544946613 L71.5278282339163,264.767779191228 L70.4554702509588,265.049300809942 L69.3967769522003,265.364700149156 L68.3532888854785,265.713518258414 L67.3265244728773,266.095247558247 L66.3179778012086,266.509332578768 L65.3291164479059,266.955170767958 L64.3613793454923,267.432113368468 L63.416174687731,267.939466361652 L62.4948778805053,268.476491477455 L61.5988295404092,269.042407268711 L60.7293335439614,269.636390248248 L59.8876551302815,270.257576087185 L59.0750190599886,270.905060872651 L58.2926078330026,271.5779024231 L57.54155996784,272.275121659326 L56.8229683449091,272.995704029157 L56.1378786162153,273.738600983769 L55.4872876837898,274.502731503478 L54.8721422490574,275.286983670769 L54.2933374352519,276.0902162883 L53.7517154848863,276.911260539497 L53.2480645341709,277.748921689355 L52.7831174661646,278.601980822939 L52.3575508443261,279.469196619079 L51.97198392802,280.349307156668 L51.6269777714057,281.241031750934 L51.323034407026,282.143072817018 L51.0605961152781,283.054117758141 L50.8400447808336,283.972840875618 L50.661701336943,284.897905297936 L50.5258252984317,285.82796492609 L50.4326143840703,286.761666392349 L50.3822042288654,287.697651029591 L50.3746681866916,288.634556848363 L50.4100172235516,289.571020518761 L50.4881999016188,290.505679354268 L50.6091024540868,291.437173294658 L50.7725489507158,292.364146885073 L50.9783015538364,293.285251248399 L51.2260608644363,294.199146048075 L51.5154663578285,295.104501438471 L51.8460969082653,296 Z" stroke="black" stroke-width="4" fill="saddlebrown" stroke-linejoin="round"></path> <path d="M79.8460969082653,283.530704212493 L92.2530966102072,258.377557263706 L86.7461335606252,253.641877452968 L79.8460969082653,283.530704212493 Z" stroke="black" stroke-width="4" fill="black" stroke-linejoin="round"></path> <path d="M151.846096908265,336.987803063838 L153.52605745916,336.291674014848 L155.175819038335,335.526723142379 L156.792563703796,334.694257051709 L158.373529909424,333.795697670215 L159.916017221948,332.832579818592 L161.417390933524,331.806548589242 L162.875086562058,330.719356536307 L164.286614231571,329.572860682145 L165.649562925137,328.369019345374 L166.961604603111,327.10988879588 L168.220498179638,325.797619742526 L169.424093350625,324.434453659546 L170.57033426666,323.022718957904 L171.657263044583,321.564827008158 L172.683023111733,320.06326802162 L173.645862377137,318.52060679685 L174.544136224244,316.93947833875 L175.376310320078,315.322583357734 L176.140963236014,313.672683656673 L176.836788875713,311.992597413485 L177.462598706046,310.285194367432 L178.01732378722,308.553390917347 L178.500016598624,306.800145140158 L178.909852657276,305.028451738228 L179.246131926122,303.241336924134 L179.508280009753,301.441853251616 L179.695849135534,299.633074401544 L179.808518918431,297.818089931794 L179.846096908265,296 L179.846096908265,296 L177.996031843655,295.305034195175 L176.128740555879,294.657777322084 L174.245453119754,294.058655760042 L172.347410147533,293.508064179314 L170.435861971649,293.006365281125 L168.512067821067,292.553889558732 L166.577294991765,292.150935079714 L164.632818011905,291.797767289617 L162.679917802242,291.494618837096 L160.719880832318,291.241689420655 L158.753998273005,291.039145657097 L156.783565145944,290.887120971767 L154.809879470457,290.785715510656 L152.834241408474,290.734996074431 L150.857952408057,290.734996074431 L148.882314346074,290.785715510656 L146.908628670586,290.887120971767 L144.938195543525,291.039145657097 L142.972312984212,291.241689420655 L141.012276014289,291.494618837096 L139.059375804626,291.797767289617 L137.114898824766,292.150935079714 L135.180125995463,292.553889558732 L133.256331844881,293.006365281125 L131.344783668998,293.508064179314 L129.446740696776,294.058655760042 L127.563453260652,294.657777322084 L125.696161972876,295.305034195175 L123.846096908265,296 L123.846096908265,296 L123.8836748981,297.818089931794 L123.996344680997,299.633074401544 L124.183913806777,301.441853251616 L124.446061890409,303.241336924134 L124.782341159254,305.028451738228 L125.192177217907,306.800145140158 L125.674870029311,308.553390917347 L126.229595110485,310.285194367432 L126.855404940817,311.992597413485 L127.551230580516,313.672683656673 L128.315883496453,315.322583357734 L129.148057592287,316.93947833875 L130.046331439394,318.52060679685 L131.009170704798,320.06326802162 L132.034930771947,321.564827008158 L133.12185954987,323.022718957904 L134.268100465905,324.434453659546 L135.471695636893,325.797619742526 L136.73058921342,327.10988879588 L138.042630891394,328.369019345374 L139.40557958496,329.572860682145 L140.817107254473,330.719356536307 L142.274802883007,331.806548589242 L143.776176594582,332.832579818592 L145.318663907106,333.795697670215 L146.899630112735,334.694257051709 L148.516374778196,335.526723142379 L150.16613635737,336.291674014848 L151.846096908265,336.987803063838 Z" stroke="black" stroke-width="4" fill="burlywood" stroke-linejoin="round"></path> <path d="M179.846096908265,296 L180.176727458702,295.104501438471 L180.466132952094,294.199146048075 L180.713892262694,293.285251248399 L180.919644865815,292.364146885073 L181.083091362444,291.437173294658 L181.203993914912,290.505679354268 L181.282176592979,289.571020518761 L181.317525629839,288.634556848363 L181.309989587665,287.697651029591 L181.25957943246,286.761666392349 L181.166368518099,285.82796492609 L181.030492479588,284.897905297936 L180.852149035697,283.972840875618 L180.631597701253,283.054117758141 L180.369159409505,282.143072817018 L180.065216045125,281.241031750934 L179.720209888511,280.349307156668 L179.334642972204,279.469196619079 L178.909076350366,278.601980822939 L178.44412928236,277.748921689355 L177.940478331644,276.911260539497 L177.398856381279,276.0902162883 L176.820051567473,275.286983670769 L176.204906132741,274.502731503478 L175.554315200315,273.738600983769 L174.869225471622,272.995704029157 L174.150633848691,272.275121659327 L173.399585983528,271.5779024231 L172.617174756542,270.905060872651 L171.804538686249,270.257576087185 L170.962860272569,269.636390248248 L170.093364276121,269.042407268711 L169.197315936025,268.476491477455 L168.2760191288,267.939466361652 L167.330814471038,267.432113368468 L166.363077368625,266.955170767958 L165.374216015322,266.509332578768 L164.365669343653,266.095247558247 L163.338904931052,265.713518258414 L162.29541686433,265.364700149156 L161.236723565572,265.049300809942 L160.164365582614,264.767779191228 L159.079903347335,264.520544946613 L157.984914905004,264.307957836738 L156.880993618002,264.130327205786 L155.769745847261,263.98791153134 L154.652788614775,263.880918048261 L153.53174725061,263.809502447133 L152.40825302782,263.773768647715 L151.283940788711,263.773768647715 L150.16044656592,263.809502447133 L149.039405201756,263.880918048261 L147.92244796927,263.98791153134 L146.811200198528,264.130327205786 L145.707278911527,264.307957836738 L144.612290469195,264.520544946613 L143.527828233916,264.767779191228 L142.455470250959,265.049300809942 L141.3967769522,265.364700149156 L140.353288885479,265.713518258414 L139.326524472877,266.095247558247 L138.317977801209,266.509332578768 L137.329116447906,266.955170767958 L136.361379345492,267.432113368468 L135.416174687731,267.939466361652 L134.494877880505,268.476491477455 L133.598829540409,269.042407268711 L132.729333543961,269.636390248248 L131.887655130281,270.257576087185 L131.075019059989,270.905060872651 L130.292607833003,271.5779024231 L129.54155996784,272.275121659326 L128.822968344909,272.995704029157 L128.137878616215,273.738600983769 L127.48728768379,274.502731503478 L126.872142249057,275.286983670769 L126.293337435252,276.0902162883 L125.751715484886,276.911260539497 L125.248064534171,277.748921689355 L124.783117466165,278.601980822939 L124.357550844326,279.469196619079 L123.97198392802,280.349307156668 L123.626977771406,281.241031750934 L123.323034407026,282.143072817018 L123.060596115278,283.054117758141 L122.840044780834,283.972840875618 L122.661701336943,284.897905297936 L122.525825298432,285.82796492609 L122.43261438407,286.761666392349 L122.382204228865,287.697651029591 L122.374668186692,288.634556848363 L122.410017223552,289.571020518761 L122.488199901619,290.505679354268 L122.609102454087,291.437173294658 L122.772548950716,292.364146885073 L122.978301553836,293.285251248399 L123.226060864436,294.199146048075 L123.515466357829,295.104501438471 L123.846096908265,296 Z" stroke="black" stroke-width="4" fill="saddlebrown" stroke-linejoin="round"></path> <path d="M151.846096908265,283.530704212493 L164.253096610207,258.377557263706 L158.746133560625,253.641877452968 L151.846096908265,283.530704212493 Z" stroke="black" stroke-width="4" fill="black" stroke-linejoin="round"></path> <path d="M223.846096908265,336.987803063838 L225.52605745916,336.291674014848 L227.175819038335,335.526723142379 L228.792563703796,334.694257051709 L230.373529909424,333.795697670215 L231.916017221948,332.832579818592 L233.417390933524,331.806548589242 L234.875086562058,330.719356536307 L236.286614231571,329.572860682145 L237.649562925137,328.369019345374 L238.961604603111,327.10988879588 L240.220498179638,325.797619742526 L241.424093350625,324.434453659546 L242.57033426666,323.022718957904 L243.657263044583,321.564827008158 L244.683023111733,320.06326802162 L245.645862377137,318.52060679685 L246.544136224244,316.93947833875 L247.376310320078,315.322583357734 L248.140963236014,313.672683656673 L248.836788875713,311.992597413485 L249.462598706046,310.285194367432 L250.01732378722,308.553390917347 L250.500016598624,306.800145140158 L250.909852657276,305.028451738228 L251.246131926122,303.241336924134 L251.508280009753,301.441853251616 L251.695849135534,299.633074401544 L251.808518918431,297.818089931794 L251.846096908265,296 L251.846096908265,296 L249.996031843655,295.305034195175 L248.128740555879,294.657777322084 L246.245453119754,294.058655760042 L244.347410147533,293.508064179314 L242.435861971649,293.006365281125 L240.512067821067,292.553889558732 L238.577294991765,292.150935079714 L236.632818011905,291.797767289617 L234.679917802242,291.494618837096 L232.719880832318,291.241689420655 L230.753998273005,291.039145657097 L228.783565145944,290.887120971767 L226.809879470457,290.785715510656 L224.834241408474,290.734996074431 L222.857952408057,290.734996074431 L220.882314346074,290.785715510656 L218.908628670586,290.887120971767 L216.938195543525,291.039145657097 L214.972312984212,291.241689420655 L213.012276014289,291.494618837096 L211.059375804626,291.797767289617 L209.114898824766,292.150935079714 L207.180125995463,292.553889558732 L205.256331844881,293.006365281125 L203.344783668998,293.508064179314 L201.446740696776,294.058655760042 L199.563453260652,294.657777322084 L197.696161972876,295.305034195175 L195.846096908265,296 L195.846096908265,296 L195.8836748981,297.818089931794 L195.996344680997,299.633074401544 L196.183913806777,301.441853251616 L196.446061890409,303.241336924134 L196.782341159254,305.028451738228 L197.192177217907,306.800145140158 L197.674870029311,308.553390917347 L198.229595110485,310.285194367432 L198.855404940817,311.992597413485 L199.551230580516,313.672683656673 L200.315883496453,315.322583357734 L201.148057592287,316.93947833875 L202.046331439394,318.52060679685 L203.009170704798,320.06326802162 L204.034930771947,321.564827008158 L205.12185954987,323.022718957904 L206.268100465905,324.434453659546 L207.471695636893,325.797619742526 L208.73058921342,327.10988879588 L210.042630891394,328.369019345374 L211.40557958496,329.572860682145 L212.817107254473,330.719356536307 L214.274802883007,331.806548589242 L215.776176594582,332.832579818592 L217.318663907106,333.795697670215 L218.899630112735,334.694257051709 L220.516374778196,335.526723142379 L222.16613635737,336.291674014848 L223.846096908265,336.987803063838 Z" stroke="black" stroke-width="4" fill="burlywood" stroke-linejoin="round"></path> <path d="M251.846096908265,296 L252.176727458702,295.104501438471 L252.466132952094,294.199146048075 L252.713892262694,293.285251248399 L252.919644865815,292.364146885073 L253.083091362444,291.437173294658 L253.203993914912,290.505679354268 L253.282176592979,289.571020518761 L253.317525629839,288.634556848363 L253.309989587665,287.697651029591 L253.25957943246,286.761666392349 L253.166368518099,285.82796492609 L253.030492479588,284.897905297936 L252.852149035697,283.972840875618 L252.631597701253,283.054117758141 L252.369159409505,282.143072817018 L252.065216045125,281.241031750934 L251.720209888511,280.349307156668 L251.334642972204,279.469196619079 L250.909076350366,278.601980822939 L250.44412928236,277.748921689355 L249.940478331644,276.911260539497 L249.398856381279,276.0902162883 L248.820051567473,275.286983670769 L248.204906132741,274.502731503478 L247.554315200315,273.738600983769 L246.869225471622,272.995704029157 L246.150633848691,272.275121659327 L245.399585983528,271.5779024231 L244.617174756542,270.905060872651 L243.804538686249,270.257576087185 L242.962860272569,269.636390248248 L242.093364276121,269.042407268711 L241.197315936025,268.476491477455 L240.2760191288,267.939466361652 L239.330814471038,267.432113368468 L238.363077368625,266.955170767958 L237.374216015322,266.509332578768 L236.365669343653,266.095247558247 L235.338904931052,265.713518258414 L234.29541686433,265.364700149156 L233.236723565572,265.049300809942 L232.164365582614,264.767779191228 L231.079903347335,264.520544946613 L229.984914905004,264.307957836738 L228.880993618002,264.130327205786 L227.769745847261,263.98791153134 L226.652788614775,263.880918048261 L225.53174725061,263.809502447133 L224.40825302782,263.773768647715 L223.283940788711,263.773768647715 L222.16044656592,263.809502447133 L221.039405201756,263.880918048261 L219.92244796927,263.98791153134 L218.811200198528,264.130327205786 L217.707278911527,264.307957836738 L216.612290469195,264.520544946613 L215.527828233916,264.767779191228 L214.455470250959,265.049300809942 L213.3967769522,265.364700149156 L212.353288885479,265.713518258414 L211.326524472877,266.095247558247 L210.317977801209,266.509332578768 L209.329116447906,266.955170767958 L208.361379345492,267.432113368468 L207.416174687731,267.939466361652 L206.494877880505,268.476491477455 L205.598829540409,269.042407268711 L204.729333543961,269.636390248248 L203.887655130281,270.257576087185 L203.075019059989,270.905060872651 L202.292607833003,271.5779024231 L201.54155996784,272.275121659326 L200.822968344909,272.995704029157 L200.137878616215,273.738600983769 L199.48728768379,274.502731503478 L198.872142249057,275.286983670769 L198.293337435252,276.0902162883 L197.751715484886,276.911260539497 L197.248064534171,277.748921689355 L196.783117466165,278.601980822939 L196.357550844326,279.469196619079 L195.97198392802,280.349307156668 L195.626977771406,281.241031750934 L195.323034407026,282.143072817018 L195.060596115278,283.054117758141 L194.840044780834,283.972840875618 L194.661701336943,284.897905297936 L194.525825298432,285.82796492609 L194.43261438407,286.761666392349 L194.382204228865,287.697651029591 L194.374668186692,288.634556848363 L194.410017223552,289.571020518761 L194.488199901619,290.505679354268 L194.609102454087,291.437173294658 L194.772548950716,292.364146885073 L194.978301553836,293.285251248399 L195.226060864436,294.199146048075 L195.515466357829,295.104501438471 L195.846096908265,296 Z" stroke="black" stroke-width="4" fill="saddlebrown" stroke-linejoin="round"></path> <path d="M223.846096908265,283.530704212493 L236.253096610207,258.377557263706 L230.746133560625,253.641877452968 L223.846096908265,283.530704212493 Z" stroke="black" stroke-width="4" fill="black" stroke-linejoin="round"></path> <path d="M295.846096908265,336.987803063838 L297.52605745916,336.291674014848 L299.175819038335,335.526723142379 L300.792563703796,334.694257051709 L302.373529909425,333.795697670215 L303.916017221948,332.832579818592 L305.417390933524,331.806548589242 L306.875086562058,330.719356536307 L308.286614231571,329.572860682145 L309.649562925137,328.369019345374 L310.961604603111,327.10988879588 L312.220498179638,325.797619742526 L313.424093350625,324.434453659546 L314.57033426666,323.022718957904 L315.657263044583,321.564827008158 L316.683023111733,320.06326802162 L317.645862377137,318.52060679685 L318.544136224244,316.93947833875 L319.376310320078,315.322583357734 L320.140963236014,313.672683656673 L320.836788875713,311.992597413485 L321.462598706046,310.285194367432 L322.01732378722,308.553390917347 L322.500016598624,306.800145140158 L322.909852657276,305.028451738228 L323.246131926122,303.241336924134 L323.508280009753,301.441853251616 L323.695849135534,299.633074401544 L323.808518918431,297.818089931794 L323.846096908265,296 L323.846096908265,296 L321.996031843655,295.305034195175 L320.128740555879,294.657777322084 L318.245453119754,294.058655760042 L316.347410147533,293.508064179314 L314.435861971649,293.006365281125 L312.512067821067,292.553889558732 L310.577294991765,292.150935079714 L308.632818011905,291.797767289617 L306.679917802242,291.494618837096 L304.719880832318,291.241689420655 L302.753998273005,291.039145657097 L300.783565145944,290.887120971767 L298.809879470457,290.785715510656 L296.834241408474,290.734996074431 L294.857952408057,290.734996074431 L292.882314346074,290.785715510656 L290.908628670586,290.887120971767 L288.938195543525,291.039145657097 L286.972312984212,291.241689420655 L285.012276014289,291.494618837096 L283.059375804626,291.797767289617 L281.114898824766,292.150935079714 L279.180125995463,292.553889558732 L277.256331844881,293.006365281125 L275.344783668998,293.508064179314 L273.446740696776,294.058655760042 L271.563453260652,294.657777322084 L269.696161972876,295.305034195175 L267.846096908265,296 L267.846096908265,296 L267.8836748981,297.818089931794 L267.996344680997,299.633074401544 L268.183913806777,301.441853251616 L268.446061890409,303.241336924134 L268.782341159254,305.028451738228 L269.192177217907,306.800145140158 L269.674870029311,308.553390917347 L270.229595110485,310.285194367432 L270.855404940817,311.992597413485 L271.551230580516,313.672683656673 L272.315883496453,315.322583357734 L273.148057592287,316.93947833875 L274.046331439394,318.52060679685 L275.009170704798,320.06326802162 L276.034930771947,321.564827008158 L277.121859549871,323.022718957904 L278.268100465905,324.434453659546 L279.471695636893,325.797619742526 L280.73058921342,327.10988879588 L282.042630891394,328.369019345374 L283.40557958496,329.572860682145 L284.817107254473,330.719356536307 L286.274802883007,331.806548589242 L287.776176594582,332.832579818592 L289.318663907106,333.795697670215 L290.899630112735,334.694257051709 L292.516374778196,335.526723142379 L294.16613635737,336.291674014848 L295.846096908265,336.987803063838 Z" stroke="black" stroke-width="4" fill="burlywood" stroke-linejoin="round"></path> <path d="M323.846096908265,296 L324.176727458702,295.104501438471 L324.466132952094,294.199146048075 L324.713892262694,293.285251248399 L324.919644865815,292.364146885073 L325.083091362444,291.437173294658 L325.203993914912,290.505679354268 L325.282176592979,289.571020518761 L325.317525629839,288.634556848363 L325.309989587665,287.697651029591 L325.25957943246,286.761666392349 L325.166368518099,285.82796492609 L325.030492479588,284.897905297936 L324.852149035697,283.972840875618 L324.631597701253,283.054117758141 L324.369159409505,282.143072817018 L324.065216045125,281.241031750934 L323.720209888511,280.349307156668 L323.334642972204,279.469196619079 L322.909076350366,278.601980822939 L322.44412928236,277.748921689355 L321.940478331644,276.911260539497 L321.398856381279,276.0902162883 L320.820051567473,275.286983670769 L320.204906132741,274.502731503478 L319.554315200315,273.738600983769 L318.869225471622,272.995704029157 L318.150633848691,272.275121659327 L317.399585983528,271.5779024231 L316.617174756542,270.905060872651 L315.804538686249,270.257576087185 L314.962860272569,269.636390248248 L314.093364276121,269.042407268711 L313.197315936025,268.476491477455 L312.2760191288,267.939466361652 L311.330814471038,267.432113368468 L310.363077368625,266.955170767958 L309.374216015322,266.509332578768 L308.365669343653,266.095247558247 L307.338904931052,265.713518258414 L306.29541686433,265.364700149156 L305.236723565572,265.049300809942 L304.164365582614,264.767779191228 L303.079903347335,264.520544946613 L301.984914905004,264.307957836738 L300.880993618002,264.130327205786 L299.769745847261,263.98791153134 L298.652788614775,263.880918048261 L297.53174725061,263.809502447133 L296.40825302782,263.773768647715 L295.283940788711,263.773768647715 L294.16044656592,263.809502447133 L293.039405201756,263.880918048261 L291.92244796927,263.98791153134 L290.811200198528,264.130327205786 L289.707278911527,264.307957836738 L288.612290469195,264.520544946613 L287.527828233916,264.767779191228 L286.455470250959,265.049300809942 L285.3967769522,265.364700149156 L284.353288885479,265.713518258414 L283.326524472877,266.095247558247 L282.317977801209,266.509332578768 L281.329116447906,266.955170767958 L280.361379345492,267.432113368468 L279.416174687731,267.939466361652 L278.494877880505,268.476491477455 L277.598829540409,269.042407268711 L276.729333543961,269.636390248248 L275.887655130281,270.257576087185 L275.075019059989,270.905060872651 L274.292607833003,271.5779024231 L273.54155996784,272.275121659326 L272.822968344909,272.995704029157 L272.137878616215,273.738600983769 L271.48728768379,274.502731503478 L270.872142249057,275.286983670769 L270.293337435252,276.0902162883 L269.751715484886,276.911260539497 L269.248064534171,277.748921689355 L268.783117466165,278.601980822939 L268.357550844326,279.469196619079 L267.97198392802,280.349307156668 L267.626977771406,281.241031750934 L267.323034407026,282.143072817018 L267.060596115278,283.054117758141 L266.840044780834,283.972840875618 L266.661701336943,284.897905297936 L266.525825298432,285.82796492609 L266.43261438407,286.761666392349 L266.382204228865,287.697651029591 L266.374668186692,288.634556848363 L266.410017223552,289.571020518761 L266.488199901619,290.505679354268 L266.609102454087,291.437173294658 L266.772548950716,292.364146885073 L266.978301553836,293.285251248399 L267.226060864436,294.199146048075 L267.515466357828,295.104501438471 L267.846096908265,296 Z" stroke="black" stroke-width="4" fill="saddlebrown" stroke-linejoin="round"></path> <path d="M295.846096908265,283.530704212493 L308.253096610207,258.377557263706 L302.746133560625,253.641877452968 L295.846096908265,283.530704212493 Z" stroke="black" stroke-width="4" fill="black" stroke-linejoin="round"></path> <path d="M367.846096908265,336.987803063838 L369.52605745916,336.291674014848 L371.175819038335,335.526723142379 L372.792563703796,334.694257051709 L374.373529909425,333.795697670215 L375.916017221948,332.832579818592 L377.417390933524,331.806548589242 L378.875086562058,330.719356536307 L380.286614231571,329.572860682145 L381.649562925137,328.369019345374 L382.961604603111,327.10988879588 L384.220498179638,325.797619742526 L385.424093350625,324.434453659546 L386.57033426666,323.022718957904 L387.657263044583,321.564827008158 L388.683023111733,320.06326802162 L389.645862377136,318.52060679685 L390.544136224244,316.93947833875 L391.376310320078,315.322583357734 L392.140963236014,313.672683656673 L392.836788875713,311.992597413485 L393.462598706046,310.285194367432 L394.01732378722,308.553390917347 L394.500016598624,306.800145140158 L394.909852657276,305.028451738228 L395.246131926122,303.241336924134 L395.508280009753,301.441853251616 L395.695849135534,299.633074401544 L395.808518918431,297.818089931794 L395.846096908265,296 L395.846096908265,296 L393.996031843655,295.305034195175 L392.128740555879,294.657777322084 L390.245453119754,294.058655760042 L388.347410147533,293.508064179314 L386.435861971649,293.006365281125 L384.512067821067,292.553889558732 L382.577294991765,292.150935079714 L380.632818011905,291.797767289617 L378.679917802242,291.494618837096 L376.719880832318,291.241689420655 L374.753998273005,291.039145657097 L372.783565145944,290.887120971767 L370.809879470457,290.785715510656 L368.834241408474,290.734996074431 L366.857952408057,290.734996074431 L364.882314346074,290.785715510656 L362.908628670586,290.887120971767 L360.938195543525,291.039145657097 L358.972312984212,291.241689420655 L357.012276014289,291.494618837096 L355.059375804626,291.797767289617 L353.114898824766,292.150935079714 L351.180125995463,292.553889558732 L349.256331844881,293.006365281125 L347.344783668998,293.508064179314 L345.446740696776,294.058655760042 L343.563453260652,294.657777322084 L341.696161972876,295.305034195175 L339.846096908265,296 L339.846096908265,296 L339.8836748981,297.818089931794 L339.996344680997,299.633074401544 L340.183913806777,301.441853251616 L340.446061890409,303.241336924134 L340.782341159254,305.028451738228 L341.192177217907,306.800145140158 L341.674870029311,308.553390917347 L342.229595110485,310.285194367432 L342.855404940817,311.992597413485 L343.551230580516,313.672683656673 L344.315883496453,315.322583357734 L345.148057592287,316.93947833875 L346.046331439394,318.52060679685 L347.009170704798,320.06326802162 L348.034930771947,321.564827008158 L349.12185954987,323.022718957904 L350.268100465905,324.434453659546 L351.471695636893,325.797619742526 L352.73058921342,327.10988879588 L354.042630891394,328.369019345374 L355.40557958496,329.572860682145 L356.817107254473,330.719356536307 L358.274802883007,331.806548589242 L359.776176594582,332.832579818592 L361.318663907106,333.795697670215 L362.899630112735,334.694257051709 L364.516374778196,335.526723142379 L366.16613635737,336.291674014848 L367.846096908265,336.987803063838 Z" stroke="black" stroke-width="4" fill="burlywood" stroke-linejoin="round"></path> <path d="M395.846096908265,296 L396.176727458702,295.104501438471 L396.466132952094,294.199146048075 L396.713892262694,293.285251248399 L396.919644865815,292.364146885073 L397.083091362444,291.437173294658 L397.203993914912,290.505679354268 L397.282176592979,289.571020518761 L397.317525629839,288.634556848363 L397.309989587665,287.697651029591 L397.25957943246,286.761666392349 L397.166368518099,285.82796492609 L397.030492479588,284.897905297936 L396.852149035697,283.972840875618 L396.631597701253,283.054117758141 L396.369159409505,282.143072817018 L396.065216045125,281.241031750934 L395.720209888511,280.349307156668 L395.334642972205,279.469196619079 L394.909076350366,278.601980822939 L394.44412928236,277.748921689355 L393.940478331644,276.911260539497 L393.398856381279,276.0902162883 L392.820051567473,275.286983670769 L392.204906132741,274.502731503478 L391.554315200315,273.738600983769 L390.869225471622,272.995704029157 L390.150633848691,272.275121659327 L389.399585983528,271.5779024231 L388.617174756542,270.905060872651 L387.804538686249,270.257576087185 L386.962860272569,269.636390248248 L386.093364276121,269.042407268711 L385.197315936025,268.476491477455 L384.2760191288,267.939466361652 L383.330814471038,267.432113368468 L382.363077368625,266.955170767958 L381.374216015322,266.509332578768 L380.365669343653,266.095247558247 L379.338904931052,265.713518258414 L378.29541686433,265.364700149156 L377.236723565572,265.049300809942 L376.164365582614,264.767779191228 L375.079903347335,264.520544946613 L373.984914905004,264.307957836738 L372.880993618002,264.130327205786 L371.769745847261,263.98791153134 L370.652788614775,263.880918048261 L369.53174725061,263.809502447133 L368.40825302782,263.773768647715 L367.283940788711,263.773768647715 L366.16044656592,263.809502447133 L365.039405201756,263.880918048261 L363.92244796927,263.98791153134 L362.811200198528,264.130327205786 L361.707278911527,264.307957836738 L360.612290469195,264.520544946613 L359.527828233916,264.767779191228 L358.455470250959,265.049300809942 L357.3967769522,265.364700149156 L356.353288885479,265.713518258414 L355.326524472877,266.095247558247 L354.317977801209,266.509332578768 L353.329116447906,266.955170767958 L352.361379345492,267.432113368468 L351.416174687731,267.939466361652 L350.494877880505,268.476491477455 L349.598829540409,269.042407268711 L348.729333543961,269.636390248248 L347.887655130281,270.257576087185 L347.075019059989,270.905060872651 L346.292607833003,271.5779024231 L345.54155996784,272.275121659326 L344.822968344909,272.995704029157 L344.137878616215,273.738600983769 L343.48728768379,274.502731503478 L342.872142249057,275.286983670769 L342.293337435252,276.0902162883 L341.751715484886,276.911260539497 L341.248064534171,277.748921689355 L340.783117466165,278.601980822939 L340.357550844326,279.469196619079 L339.97198392802,280.349307156668 L339.626977771406,281.241031750934 L339.323034407026,282.143072817018 L339.060596115278,283.054117758141 L338.840044780834,283.972840875618 L338.661701336943,284.897905297936 L338.525825298432,285.82796492609 L338.43261438407,286.761666392349 L338.382204228865,287.697651029591 L338.374668186692,288.634556848363 L338.410017223552,289.571020518761 L338.488199901619,290.505679354268 L338.609102454087,291.437173294658 L338.772548950716,292.364146885073 L338.978301553836,293.285251248399 L339.226060864436,294.199146048075 L339.515466357828,295.104501438471 L339.846096908265,296 Z" stroke="black" stroke-width="4" fill="saddlebrown" stroke-linejoin="round"></path> <path d="M367.846096908265,283.530704212493 L380.253096610207,258.377557263706 L374.746133560625,253.641877452968 L367.846096908265,283.530704212493 Z" stroke="black" stroke-width="4" fill="black" stroke-linejoin="round"></path> <path d="M115.846096908265,264.987803063838 L117.52605745916,264.291674014848 L119.175819038335,263.526723142379 L120.792563703796,262.694257051709 L122.373529909424,261.795697670215 L123.916017221948,260.832579818592 L125.417390933524,259.806548589242 L126.875086562058,258.719356536307 L128.286614231571,257.572860682145 L129.649562925137,256.369019345374 L130.961604603111,255.10988879588 L132.220498179638,253.797619742526 L133.424093350625,252.434453659546 L134.57033426666,251.022718957904 L135.657263044583,249.564827008158 L136.683023111733,248.06326802162 L137.645862377137,246.52060679685 L138.544136224244,244.93947833875 L139.376310320078,243.322583357734 L140.140963236014,241.672683656673 L140.836788875713,239.992597413485 L141.462598706046,238.285194367432 L142.01732378722,236.553390917347 L142.500016598624,234.800145140158 L142.909852657276,233.028451738228 L143.246131926122,231.241336924134 L143.508280009753,229.441853251616 L143.695849135534,227.633074401544 L143.808518918431,225.818089931794 L143.846096908265,224 L143.846096908265,224 L141.996031843655,223.305034195175 L140.128740555879,222.657777322084 L138.245453119754,222.058655760042 L136.347410147533,221.508064179314 L134.435861971649,221.006365281125 L132.512067821067,220.553889558732 L130.577294991765,220.150935079714 L128.632818011905,219.797767289617 L126.679917802242,219.494618837096 L124.719880832318,219.241689420655 L122.753998273005,219.039145657097 L120.783565145944,218.887120971767 L118.809879470457,218.785715510656 L116.834241408474,218.734996074431 L114.857952408057,218.734996074431 L112.882314346074,218.785715510656 L110.908628670586,218.887120971767 L108.938195543525,219.039145657097 L106.972312984212,219.241689420655 L105.012276014289,219.494618837096 L103.059375804626,219.797767289617 L101.114898824766,220.150935079714 L99.1801259954632,220.553889558732 L97.2563318448813,221.006365281125 L95.3447836689977,221.508064179314 L93.4467406967762,222.058655760042 L91.5634532606516,222.657777322084 L89.6961619728756,223.305034195175 L87.8460969082653,224 L87.8460969082653,224 L87.8836748980995,225.818089931794 L87.9963446809967,227.633074401544 L88.1839138067771,229.441853251616 L88.4460618904087,231.241336924134 L88.7823411592543,233.028451738228 L89.1921772179071,234.800145140158 L89.6748700293105,236.553390917347 L90.2295951104846,238.285194367432 L90.8554049408174,239.992597413485 L91.5512305805162,241.672683656673 L92.315883496453,243.322583357734 L93.1480575922867,244.93947833875 L94.0463314393941,246.52060679685 L95.0091707047981,248.06326802162 L96.0349307719474,249.564827008158 L97.1218595498705,251.022718957904 L98.2681004659052,252.434453659546 L99.4716956368928,253.797619742526 L100.73058921342,255.10988879588 L102.042630891394,256.369019345374 L103.40557958496,257.572860682145 L104.817107254473,258.719356536307 L106.274802883007,259.806548589242 L107.776176594582,260.832579818592 L109.318663907106,261.795697670215 L110.899630112735,262.694257051709 L112.516374778196,263.526723142379 L114.16613635737,264.291674014848 L115.846096908265,264.987803063838 Z" stroke="black" stroke-width="4" fill="burlywood" stroke-linejoin="round"></path> <path d="M143.846096908265,224 L144.176727458702,223.104501438471 L144.466132952094,222.199146048075 L144.713892262694,221.285251248399 L144.919644865815,220.364146885073 L145.083091362444,219.437173294658 L145.203993914912,218.505679354268 L145.282176592979,217.571020518761 L145.317525629839,216.634556848363 L145.309989587665,215.697651029591 L145.25957943246,214.761666392349 L145.166368518099,213.82796492609 L145.030492479588,212.897905297936 L144.852149035697,211.972840875618 L144.631597701253,211.054117758141 L144.369159409505,210.143072817018 L144.065216045125,209.241031750934 L143.720209888511,208.349307156668 L143.334642972204,207.469196619079 L142.909076350366,206.601980822939 L142.44412928236,205.748921689355 L141.940478331644,204.911260539497 L141.398856381279,204.0902162883 L140.820051567473,203.286983670769 L140.204906132741,202.502731503478 L139.554315200315,201.738600983769 L138.869225471622,200.995704029157 L138.150633848691,200.275121659327 L137.399585983528,199.5779024231 L136.617174756542,198.905060872651 L135.804538686249,198.257576087185 L134.962860272569,197.636390248248 L134.093364276121,197.042407268711 L133.197315936025,196.476491477455 L132.2760191288,195.939466361652 L131.330814471038,195.432113368468 L130.363077368625,194.955170767958 L129.374216015322,194.509332578768 L128.365669343653,194.095247558247 L127.338904931052,193.713518258414 L126.29541686433,193.364700149156 L125.236723565572,193.049300809942 L124.164365582614,192.767779191228 L123.079903347335,192.520544946613 L121.984914905004,192.307957836738 L120.880993618002,192.130327205786 L119.769745847261,191.98791153134 L118.652788614775,191.880918048261 L117.53174725061,191.809502447133 L116.40825302782,191.773768647715 L115.283940788711,191.773768647715 L114.16044656592,191.809502447133 L113.039405201756,191.880918048261 L111.92244796927,191.98791153134 L110.811200198528,192.130327205786 L109.707278911527,192.307957836738 L108.612290469195,192.520544946613 L107.527828233916,192.767779191228 L106.455470250959,193.049300809942 L105.3967769522,193.364700149156 L104.353288885479,193.713518258414 L103.326524472877,194.095247558247 L102.317977801209,194.509332578768 L101.329116447906,194.955170767958 L100.361379345492,195.432113368468 L99.416174687731,195.939466361652 L98.4948778805053,196.476491477455 L97.5988295404092,197.042407268711 L96.7293335439614,197.636390248248 L95.8876551302815,198.257576087185 L95.0750190599886,198.905060872651 L94.2926078330026,199.5779024231 L93.54155996784,200.275121659327 L92.8229683449091,200.995704029157 L92.1378786162153,201.738600983769 L91.4872876837898,202.502731503478 L90.8721422490574,203.286983670769 L90.2933374352519,204.0902162883 L89.7517154848863,204.911260539497 L89.2480645341709,205.748921689355 L88.7831174661646,206.601980822939 L88.3575508443261,207.469196619079 L87.97198392802,208.349307156668 L87.6269777714057,209.241031750934 L87.323034407026,210.143072817018 L87.0605961152781,211.054117758141 L86.8400447808336,211.972840875618 L86.661701336943,212.897905297936 L86.5258252984317,213.82796492609 L86.4326143840703,214.761666392349 L86.3822042288654,215.697651029591 L86.3746681866916,216.634556848363 L86.4100172235516,217.571020518761 L86.4881999016188,218.505679354268 L86.6091024540868,219.437173294658 L86.7725489507158,220.364146885073 L86.9783015538364,221.285251248399 L87.2260608644363,222.199146048075 L87.5154663578285,223.104501438471 L87.8460969082653,224 Z" stroke="black" stroke-width="4" fill="saddlebrown" stroke-linejoin="round"></path> <path d="M115.846096908265,211.530704212493 L128.253096610207,186.377557263706 L122.746133560625,181.641877452968 L115.846096908265,211.530704212493 Z" stroke="black" stroke-width="4" fill="black" stroke-linejoin="round"></path> <path d="M187.846096908265,264.987803063838 L189.52605745916,264.291674014848 L191.175819038335,263.526723142379 L192.792563703796,262.694257051709 L194.373529909424,261.795697670215 L195.916017221948,260.832579818592 L197.417390933524,259.806548589242 L198.875086562058,258.719356536307 L200.286614231571,257.572860682145 L201.649562925137,256.369019345374 L202.961604603111,255.10988879588 L204.220498179638,253.797619742526 L205.424093350625,252.434453659546 L206.57033426666,251.022718957904 L207.657263044583,249.564827008158 L208.683023111733,248.06326802162 L209.645862377137,246.52060679685 L210.544136224244,244.93947833875 L211.376310320078,243.322583357734 L212.140963236014,241.672683656673 L212.836788875713,239.992597413485 L213.462598706046,238.285194367432 L214.01732378722,236.553390917347 L214.500016598624,234.800145140158 L214.909852657276,233.028451738228 L215.246131926122,231.241336924134 L215.508280009753,229.441853251616 L215.695849135534,227.633074401544 L215.808518918431,225.818089931794 L215.846096908265,224 L215.846096908265,224 L213.996031843655,223.305034195175 L212.128740555879,222.657777322084 L210.245453119754,222.058655760042 L208.347410147533,221.508064179314 L206.435861971649,221.006365281125 L204.512067821067,220.553889558732 L202.577294991765,220.150935079714 L200.632818011905,219.797767289617 L198.679917802242,219.494618837096 L196.719880832318,219.241689420655 L194.753998273005,219.039145657097 L192.783565145944,218.887120971767 L190.809879470457,218.785715510656 L188.834241408474,218.734996074431 L186.857952408057,218.734996074431 L184.882314346074,218.785715510656 L182.908628670586,218.887120971767 L180.938195543525,219.039145657097 L178.972312984212,219.241689420655 L177.012276014289,219.494618837096 L175.059375804626,219.797767289617 L173.114898824766,220.150935079714 L171.180125995463,220.553889558732 L169.256331844881,221.006365281125 L167.344783668998,221.508064179314 L165.446740696776,222.058655760042 L163.563453260652,222.657777322084 L161.696161972876,223.305034195175 L159.846096908265,224 L159.846096908265,224 L159.8836748981,225.818089931794 L159.996344680997,227.633074401544 L160.183913806777,229.441853251616 L160.446061890409,231.241336924134 L160.782341159254,233.028451738228 L161.192177217907,234.800145140158 L161.674870029311,236.553390917347 L162.229595110485,238.285194367432 L162.855404940817,239.992597413485 L163.551230580516,241.672683656673 L164.315883496453,243.322583357734 L165.148057592287,244.93947833875 L166.046331439394,246.52060679685 L167.009170704798,248.06326802162 L168.034930771947,249.564827008158 L169.12185954987,251.022718957904 L170.268100465905,252.434453659546 L171.471695636893,253.797619742526 L172.73058921342,255.10988879588 L174.042630891394,256.369019345374 L175.40557958496,257.572860682145 L176.817107254473,258.719356536307 L178.274802883007,259.806548589242 L179.776176594582,260.832579818592 L181.318663907106,261.795697670215 L182.899630112735,262.694257051709 L184.516374778196,263.526723142379 L186.16613635737,264.291674014848 L187.846096908265,264.987803063838 Z" stroke="black" stroke-width="4" fill="burlywood" stroke-linejoin="round"></path> <path d="M215.846096908265,224 L216.176727458702,223.104501438471 L216.466132952094,222.199146048075 L216.713892262694,221.285251248399 L216.919644865815,220.364146885073 L217.083091362444,219.437173294658 L217.203993914912,218.505679354268 L217.282176592979,217.571020518761 L217.317525629839,216.634556848363 L217.309989587665,215.697651029591 L217.25957943246,214.761666392349 L217.166368518099,213.82796492609 L217.030492479588,212.897905297936 L216.852149035697,211.972840875618 L216.631597701253,211.054117758141 L216.369159409505,210.143072817018 L216.065216045125,209.241031750934 L215.720209888511,208.349307156668 L215.334642972204,207.469196619079 L214.909076350366,206.601980822939 L214.44412928236,205.748921689355 L213.940478331644,204.911260539497 L213.398856381279,204.0902162883 L212.820051567473,203.286983670769 L212.204906132741,202.502731503478 L211.554315200315,201.738600983769 L210.869225471622,200.995704029157 L210.150633848691,200.275121659327 L209.399585983528,199.5779024231 L208.617174756542,198.905060872651 L207.804538686249,198.257576087185 L206.962860272569,197.636390248248 L206.093364276121,197.042407268711 L205.197315936025,196.476491477455 L204.2760191288,195.939466361652 L203.330814471038,195.432113368468 L202.363077368625,194.955170767958 L201.374216015322,194.509332578768 L200.365669343653,194.095247558247 L199.338904931052,193.713518258414 L198.29541686433,193.364700149156 L197.236723565572,193.049300809942 L196.164365582614,192.767779191228 L195.079903347335,192.520544946613 L193.984914905004,192.307957836738 L192.880993618002,192.130327205786 L191.769745847261,191.98791153134 L190.652788614775,191.880918048261 L189.53174725061,191.809502447133 L188.40825302782,191.773768647715 L187.283940788711,191.773768647715 L186.16044656592,191.809502447133 L185.039405201756,191.880918048261 L183.92244796927,191.98791153134 L182.811200198528,192.130327205786 L181.707278911527,192.307957836738 L180.612290469195,192.520544946613 L179.527828233916,192.767779191228 L178.455470250959,193.049300809942 L177.3967769522,193.364700149156 L176.353288885479,193.713518258414 L175.326524472877,194.095247558247 L174.317977801209,194.509332578768 L173.329116447906,194.955170767958 L172.361379345492,195.432113368468 L171.416174687731,195.939466361652 L170.494877880505,196.476491477455 L169.598829540409,197.042407268711 L168.729333543961,197.636390248248 L167.887655130281,198.257576087185 L167.075019059989,198.905060872651 L166.292607833003,199.5779024231 L165.54155996784,200.275121659327 L164.822968344909,200.995704029157 L164.137878616215,201.738600983769 L163.48728768379,202.502731503478 L162.872142249057,203.286983670769 L162.293337435252,204.0902162883 L161.751715484886,204.911260539497 L161.248064534171,205.748921689355 L160.783117466165,206.601980822939 L160.357550844326,207.469196619079 L159.97198392802,208.349307156668 L159.626977771406,209.241031750934 L159.323034407026,210.143072817018 L159.060596115278,211.054117758141 L158.840044780834,211.972840875618 L158.661701336943,212.897905297936 L158.525825298432,213.82796492609 L158.43261438407,214.761666392349 L158.382204228865,215.697651029591 L158.374668186692,216.634556848363 L158.410017223552,217.571020518761 L158.488199901619,218.505679354268 L158.609102454087,219.437173294658 L158.772548950716,220.364146885073 L158.978301553836,221.285251248399 L159.226060864436,222.199146048075 L159.515466357829,223.104501438471 L159.846096908265,224 Z" stroke="black" stroke-width="4" fill="saddlebrown" stroke-linejoin="round"></path> <path d="M187.846096908265,211.530704212493 L200.253096610207,186.377557263706 L194.746133560625,181.641877452968 L187.846096908265,211.530704212493 Z" stroke="black" stroke-width="4" fill="black" stroke-linejoin="round"></path> <path d="M259.846096908265,264.987803063838 L261.52605745916,264.291674014848 L263.175819038335,263.526723142379 L264.792563703796,262.694257051709 L266.373529909425,261.795697670215 L267.916017221948,260.832579818592 L269.417390933524,259.806548589242 L270.875086562058,258.719356536307 L272.286614231571,257.572860682145 L273.649562925137,256.369019345374 L274.961604603111,255.10988879588 L276.220498179638,253.797619742526 L277.424093350625,252.434453659546 L278.57033426666,251.022718957904 L279.657263044583,249.564827008158 L280.683023111733,248.06326802162 L281.645862377137,246.52060679685 L282.544136224244,244.93947833875 L283.376310320078,243.322583357734 L284.140963236014,241.672683656673 L284.836788875713,239.992597413485 L285.462598706046,238.285194367432 L286.01732378722,236.553390917347 L286.500016598624,234.800145140158 L286.909852657276,233.028451738228 L287.246131926122,231.241336924134 L287.508280009753,229.441853251616 L287.695849135534,227.633074401544 L287.808518918431,225.818089931794 L287.846096908265,224 L287.846096908265,224 L285.996031843655,223.305034195175 L284.128740555879,222.657777322084 L282.245453119754,222.058655760042 L280.347410147533,221.508064179314 L278.435861971649,221.006365281125 L276.512067821067,220.553889558732 L274.577294991765,220.150935079714 L272.632818011905,219.797767289617 L270.679917802242,219.494618837096 L268.719880832318,219.241689420655 L266.753998273005,219.039145657097 L264.783565145944,218.887120971767 L262.809879470457,218.785715510656 L260.834241408474,218.734996074431 L258.857952408057,218.734996074431 L256.882314346074,218.785715510656 L254.908628670586,218.887120971767 L252.938195543525,219.039145657097 L250.972312984212,219.241689420655 L249.012276014289,219.494618837096 L247.059375804626,219.797767289617 L245.114898824766,220.150935079714 L243.180125995463,220.553889558732 L241.256331844881,221.006365281125 L239.344783668998,221.508064179314 L237.446740696776,222.058655760042 L235.563453260652,222.657777322084 L233.696161972876,223.305034195175 L231.846096908265,224 L231.846096908265,224 L231.8836748981,225.818089931794 L231.996344680997,227.633074401544 L232.183913806777,229.441853251616 L232.446061890409,231.241336924134 L232.782341159254,233.028451738228 L233.192177217907,234.800145140158 L233.674870029311,236.553390917347 L234.229595110485,238.285194367432 L234.855404940817,239.992597413485 L235.551230580516,241.672683656673 L236.315883496453,243.322583357734 L237.148057592287,244.93947833875 L238.046331439394,246.52060679685 L239.009170704798,248.06326802162 L240.034930771947,249.564827008158 L241.12185954987,251.022718957904 L242.268100465905,252.434453659546 L243.471695636893,253.797619742526 L244.73058921342,255.10988879588 L246.042630891394,256.369019345374 L247.40557958496,257.572860682145 L248.817107254473,258.719356536307 L250.274802883007,259.806548589242 L251.776176594582,260.832579818592 L253.318663907106,261.795697670215 L254.899630112735,262.694257051709 L256.516374778196,263.526723142379 L258.16613635737,264.291674014848 L259.846096908265,264.987803063838 Z" stroke="black" stroke-width="4" fill="burlywood" stroke-linejoin="round"></path> <path d="M287.846096908265,224 L288.176727458702,223.104501438471 L288.466132952094,222.199146048075 L288.713892262694,221.285251248399 L288.919644865815,220.364146885073 L289.083091362444,219.437173294658 L289.203993914912,218.505679354268 L289.282176592979,217.571020518761 L289.317525629839,216.634556848363 L289.309989587665,215.697651029591 L289.25957943246,214.761666392349 L289.166368518099,213.82796492609 L289.030492479588,212.897905297936 L288.852149035697,211.972840875618 L288.631597701253,211.054117758141 L288.369159409505,210.143072817018 L288.065216045125,209.241031750934 L287.720209888511,208.349307156668 L287.334642972204,207.469196619079 L286.909076350366,206.601980822939 L286.44412928236,205.748921689355 L285.940478331644,204.911260539497 L285.398856381279,204.0902162883 L284.820051567473,203.286983670769 L284.204906132741,202.502731503478 L283.554315200315,201.738600983769 L282.869225471622,200.995704029157 L282.150633848691,200.275121659327 L281.399585983528,199.5779024231 L280.617174756542,198.905060872651 L279.804538686249,198.257576087185 L278.962860272569,197.636390248248 L278.093364276121,197.042407268711 L277.197315936025,196.476491477455 L276.2760191288,195.939466361652 L275.330814471038,195.432113368468 L274.363077368625,194.955170767958 L273.374216015322,194.509332578768 L272.365669343653,194.095247558247 L271.338904931052,193.713518258414 L270.29541686433,193.364700149156 L269.236723565572,193.049300809942 L268.164365582614,192.767779191228 L267.079903347335,192.520544946613 L265.984914905004,192.307957836738 L264.880993618002,192.130327205786 L263.769745847261,191.98791153134 L262.652788614775,191.880918048261 L261.53174725061,191.809502447133 L260.40825302782,191.773768647715 L259.283940788711,191.773768647715 L258.16044656592,191.809502447133 L257.039405201756,191.880918048261 L255.92244796927,191.98791153134 L254.811200198528,192.130327205786 L253.707278911527,192.307957836738 L252.612290469195,192.520544946613 L251.527828233916,192.767779191228 L250.455470250959,193.049300809942 L249.3967769522,193.364700149156 L248.353288885479,193.713518258414 L247.326524472877,194.095247558247 L246.317977801209,194.509332578768 L245.329116447906,194.955170767958 L244.361379345492,195.432113368468 L243.416174687731,195.939466361652 L242.494877880505,196.476491477455 L241.598829540409,197.042407268711 L240.729333543961,197.636390248248 L239.887655130281,198.257576087185 L239.075019059989,198.905060872651 L238.292607833003,199.5779024231 L237.54155996784,200.275121659327 L236.822968344909,200.995704029157 L236.137878616215,201.738600983769 L235.48728768379,202.502731503478 L234.872142249057,203.286983670769 L234.293337435252,204.0902162883 L233.751715484886,204.911260539497 L233.248064534171,205.748921689355 L232.783117466165,206.601980822939 L232.357550844326,207.469196619079 L231.97198392802,208.349307156668 L231.626977771406,209.241031750934 L231.323034407026,210.143072817018 L231.060596115278,211.054117758141 L230.840044780834,211.972840875618 L230.661701336943,212.897905297936 L230.525825298432,213.82796492609 L230.43261438407,214.761666392349 L230.382204228865,215.697651029591 L230.374668186692,216.634556848363 L230.410017223552,217.571020518761 L230.488199901619,218.505679354268 L230.609102454087,219.437173294658 L230.772548950716,220.364146885073 L230.978301553836,221.285251248399 L231.226060864436,222.199146048075 L231.515466357829,223.104501438471 L231.846096908265,224 Z" stroke="black" stroke-width="4" fill="saddlebrown" stroke-linejoin="round"></path> <path d="M259.846096908265,211.530704212493 L272.253096610207,186.377557263706 L266.746133560625,181.641877452968 L259.846096908265,211.530704212493 Z" stroke="black" stroke-width="4" fill="black" stroke-linejoin="round"></path> <path d="M331.846096908265,264.987803063838 L333.52605745916,264.291674014848 L335.175819038335,263.526723142379 L336.792563703796,262.694257051709 L338.373529909425,261.795697670215 L339.916017221948,260.832579818592 L341.417390933524,259.806548589242 L342.875086562058,258.719356536307 L344.286614231571,257.572860682145 L345.649562925137,256.369019345374 L346.961604603111,255.10988879588 L348.220498179638,253.797619742526 L349.424093350625,252.434453659546 L350.57033426666,251.022718957904 L351.657263044583,249.564827008158 L352.683023111733,248.06326802162 L353.645862377136,246.52060679685 L354.544136224244,244.93947833875 L355.376310320078,243.322583357734 L356.140963236014,241.672683656673 L356.836788875713,239.992597413485 L357.462598706046,238.285194367432 L358.01732378722,236.553390917347 L358.500016598624,234.800145140158 L358.909852657276,233.028451738228 L359.246131926122,231.241336924134 L359.508280009753,229.441853251616 L359.695849135534,227.633074401544 L359.808518918431,225.818089931794 L359.846096908265,224 L359.846096908265,224 L357.996031843655,223.305034195175 L356.128740555879,222.657777322084 L354.245453119754,222.058655760042 L352.347410147533,221.508064179314 L350.435861971649,221.006365281125 L348.512067821067,220.553889558732 L346.577294991765,220.150935079714 L344.632818011905,219.797767289617 L342.679917802242,219.494618837096 L340.719880832318,219.241689420655 L338.753998273005,219.039145657097 L336.783565145944,218.887120971767 L334.809879470457,218.785715510656 L332.834241408474,218.734996074431 L330.857952408057,218.734996074431 L328.882314346074,218.785715510656 L326.908628670586,218.887120971767 L324.938195543525,219.039145657097 L322.972312984212,219.241689420655 L321.012276014289,219.494618837096 L319.059375804626,219.797767289617 L317.114898824766,220.150935079714 L315.180125995463,220.553889558732 L313.256331844881,221.006365281125 L311.344783668998,221.508064179314 L309.446740696776,222.058655760042 L307.563453260652,222.657777322084 L305.696161972876,223.305034195175 L303.846096908265,224 L303.846096908265,224 L303.8836748981,225.818089931794 L303.996344680997,227.633074401544 L304.183913806777,229.441853251616 L304.446061890409,231.241336924134 L304.782341159254,233.028451738228 L305.192177217907,234.800145140158 L305.674870029311,236.553390917347 L306.229595110485,238.285194367432 L306.855404940817,239.992597413485 L307.551230580516,241.672683656673 L308.315883496453,243.322583357734 L309.148057592287,244.93947833875 L310.046331439394,246.52060679685 L311.009170704798,248.06326802162 L312.034930771947,249.564827008158 L313.12185954987,251.022718957904 L314.268100465905,252.434453659546 L315.471695636893,253.797619742526 L316.73058921342,255.10988879588 L318.042630891394,256.369019345374 L319.40557958496,257.572860682145 L320.817107254473,258.719356536307 L322.274802883007,259.806548589242 L323.776176594582,260.832579818592 L325.318663907106,261.795697670215 L326.899630112735,262.694257051709 L328.516374778196,263.526723142379 L330.16613635737,264.291674014848 L331.846096908265,264.987803063838 Z" stroke="black" stroke-width="4" fill="burlywood" stroke-linejoin="round"></path> <path d="M359.846096908265,224 L360.176727458702,223.104501438471 L360.466132952094,222.199146048075 L360.713892262694,221.285251248399 L360.919644865815,220.364146885073 L361.083091362444,219.437173294658 L361.203993914912,218.505679354268 L361.282176592979,217.571020518761 L361.317525629839,216.634556848363 L361.309989587665,215.697651029591 L361.25957943246,214.761666392349 L361.166368518099,213.82796492609 L361.030492479588,212.897905297936 L360.852149035697,211.972840875618 L360.631597701253,211.054117758141 L360.369159409505,210.143072817018 L360.065216045125,209.241031750934 L359.720209888511,208.349307156668 L359.334642972205,207.469196619079 L358.909076350366,206.601980822939 L358.44412928236,205.748921689355 L357.940478331644,204.911260539497 L357.398856381279,204.0902162883 L356.820051567473,203.286983670769 L356.204906132741,202.502731503478 L355.554315200315,201.738600983769 L354.869225471622,200.995704029157 L354.150633848691,200.275121659327 L353.399585983528,199.5779024231 L352.617174756542,198.905060872651 L351.804538686249,198.257576087185 L350.962860272569,197.636390248248 L350.093364276121,197.042407268711 L349.197315936025,196.476491477455 L348.2760191288,195.939466361652 L347.330814471038,195.432113368468 L346.363077368625,194.955170767958 L345.374216015322,194.509332578768 L344.365669343653,194.095247558247 L343.338904931052,193.713518258414 L342.29541686433,193.364700149156 L341.236723565572,193.049300809942 L340.164365582614,192.767779191228 L339.079903347335,192.520544946613 L337.984914905004,192.307957836738 L336.880993618002,192.130327205786 L335.769745847261,191.98791153134 L334.652788614775,191.880918048261 L333.53174725061,191.809502447133 L332.40825302782,191.773768647715 L331.283940788711,191.773768647715 L330.16044656592,191.809502447133 L329.039405201756,191.880918048261 L327.92244796927,191.98791153134 L326.811200198528,192.130327205786 L325.707278911527,192.307957836738 L324.612290469195,192.520544946613 L323.527828233916,192.767779191228 L322.455470250959,193.049300809942 L321.3967769522,193.364700149156 L320.353288885479,193.713518258414 L319.326524472877,194.095247558247 L318.317977801209,194.509332578768 L317.329116447906,194.955170767958 L316.361379345492,195.432113368468 L315.416174687731,195.939466361652 L314.494877880505,196.476491477455 L313.598829540409,197.042407268711 L312.729333543961,197.636390248248 L311.887655130281,198.257576087185 L311.075019059989,198.905060872651 L310.292607833003,199.5779024231 L309.54155996784,200.275121659327 L308.822968344909,200.995704029157 L308.137878616215,201.738600983769 L307.48728768379,202.502731503478 L306.872142249057,203.286983670769 L306.293337435252,204.0902162883 L305.751715484886,204.911260539497 L305.248064534171,205.748921689355 L304.783117466165,206.601980822939 L304.357550844326,207.469196619079 L303.97198392802,208.349307156668 L303.626977771406,209.241031750934 L303.323034407026,210.143072817018 L303.060596115278,211.054117758141 L302.840044780834,211.972840875618 L302.661701336943,212.897905297936 L302.525825298432,213.82796492609 L302.43261438407,214.761666392349 L302.382204228865,215.697651029591 L302.374668186692,216.634556848363 L302.410017223552,217.571020518761 L302.488199901619,218.505679354268 L302.609102454087,219.437173294658 L302.772548950716,220.364146885073 L302.978301553836,221.285251248399 L303.226060864436,222.199146048075 L303.515466357828,223.104501438471 L303.846096908265,224 Z" stroke="black" stroke-width="4" fill="saddlebrown" stroke-linejoin="round"></path> <path d="M331.846096908265,211.530704212493 L344.253096610207,186.377557263706 L338.746133560625,181.641877452968 L331.846096908265,211.530704212493 Z" stroke="black" stroke-width="4" fill="black" stroke-linejoin="round"></path> </svg>