<svg width="1005" height="115" xmlns="http://www.w3.org/2000/svg" xmlns:xlink="http://www.w3.org/1999/xlink" overflow="hidden"><defs><clipPath id="clip0"><rect x="160" y="58" width="1005" height="115"/></clipPath></defs><g clip-path="url(#clip0)" transform="translate(-160 -58)"><path d="M233.682 103.862 242.08 99.3521 252.864 96.4172 263.921 93.7483 275.802 91.1572 288.556 88.5684 302.186 86.1075 316.606 83.7147 331.688 81.4524 347.511 79.1919 364.039 77.0553 381.11 75.0469 398.861 73.1024 417.055 71.283 435.797 69.5906 454.983 67.9604 474.615 66.5178 494.62 65.2009 535.588 62.9457 577.516 61.2536 620.132 60.2509 663.125 59.8748 706.056 60.2509 748.666 61.2534 790.651 62.8827 831.562 65.0755 851.572 66.3928 871.18 67.8336 890.366 69.3384 909.119 71.0318 927.364 72.7873 945.066 74.6706 962.135 76.6786 978.648 78.7507 994.486 80.9503 1009.57 83.2124 1023.97 85.5397 1037.6 87.9371 1050.35 90.4624 1062.23 92.9898 1073.28 95.5945 1084.07 98.4624 1092.28 102.819 1085.4 115.772 1077.93 111.81 1079.49 112.421 1069.62 109.796 1069.82 109.846 1058.94 107.284 1059.1 107.319 1047.35 104.819 1047.45 104.84 1034.83 102.34 1034.98 102.368 1021.48 99.9934 1021.58 100.01 1007.27 97.6979 1007.35 97.7106 992.35 95.4606 992.429 95.472 976.679 93.2845 976.774 93.2972 960.337 91.2347 960.393 91.2415 943.393 89.2415 943.474 89.2506 925.849 87.3756 925.923 87.3831 907.735 85.6331 907.778 85.6371 889.09 83.9496 889.177 83.9568 870.052 82.4568 870.088 82.4595 850.525 81.022 850.581 81.0259 830.643 79.7134 830.732 79.7188 789.92 77.5313 790.028 77.5363 748.153 75.9113 748.265 75.9147 705.765 74.9147 705.873 74.9165 663.061 74.5415 663.189 74.5415 620.314 74.9165 620.422 74.9147 577.922 75.9147 578.046 75.9108 536.233 77.5983 536.341 77.5932 495.466 79.8432 495.544 79.8384 475.607 81.1509 475.662 81.147 456.1 82.5845 456.183 82.5779 437.058 84.2029 437.097 84.1996 418.41 85.8871 418.48 85.8804 400.355 87.6929 400.424 87.6857 382.736 89.6232 382.794 89.6165 365.794 91.6165 365.878 91.6062 349.44 93.7312 349.537 93.7181 333.787 95.9681 333.838 95.9606 318.838 98.2106 318.95 98.1928 304.638 100.568 304.741 100.55 291.241 102.988 291.396 102.958 278.771 105.52 278.875 105.498 267.125 108.061 267.283 108.025 256.408 110.65 256.613 110.597 246.738 113.284 248.282 112.669 240.621 116.784ZM254.588 125.612 205.5 128.833 232.375 87.63ZM1093.36 86.5521 1120.69 127.458 1071.57 124.775Z" fill="#001489"/></g></svg>