<svg width="1008" height="258" xmlns="http://www.w3.org/2000/svg" xmlns:xlink="http://www.w3.org/1999/xlink" overflow="hidden"><defs><clipPath id="clip0"><rect x="144" y="204" width="1008" height="258"/></clipPath></defs><g clip-path="url(#clip0)" transform="translate(-144 -204)"><path d="M276.124 299.203 292.847 282.837 306.41 275.608 318.952 269.499 332.292 263.542 346.22 257.867 360.721 252.413 375.845 247.159 391.521 242.168 407.674 237.443 424.338 232.974 441.476 228.833 458.94 224.959 476.817 221.333 495.105 218.072 532.247 212.63 551.313 210.398 570.503 208.555 589.873 207.095 609.326 206.014 628.902 205.378 648.475 205.124 668.073 205.315 687.674 205.951 707.127 207.032 726.497 208.493 745.662 210.333 764.728 212.501 801.895 217.947 820.157 221.203 838.008 224.76 855.498 228.576 872.636 232.718 889.3 237.123 905.451 241.847 921.101 246.766 936.223 251.956 950.752 257.356 964.679 263.03 977.99 268.91 990.532 274.954 1004.13 282.127 1020.5 298.157 999.038 320.065 984.27 305.6 987.846 308.208 976.471 302.208 976.969 302.459 964.906 296.647 965.367 296.859 952.492 291.172 952.902 291.346 939.402 285.846 939.845 286.019 925.72 280.769 926.085 280.899 911.335 275.836 911.715 275.961 896.403 271.149 896.695 271.238 880.883 266.613 881.268 266.72 864.956 262.407 865.273 262.488 848.461 258.425 848.794 258.502 831.606 254.752 831.878 254.809 814.316 251.309 814.621 251.366 796.746 248.179 797.215 248.255 760.527 242.88 761.018 242.944 742.33 240.819 742.597 240.847 723.722 239.034 724.034 239.061 704.972 237.623 705.274 237.643 686.149 236.581 686.502 236.596 667.252 235.971 667.601 235.979 648.351 235.791 648.699 235.79 629.449 236.04 629.748 236.034 610.498 236.659 610.851 236.643 591.726 237.706 592.028 237.686 572.966 239.123 573.278 239.097 554.403 240.909 554.72 240.875 536.033 243.063 536.473 243.005 499.785 248.38 500.254 248.304 482.379 251.491 482.736 251.423 465.173 254.986 465.445 254.928 448.258 258.74 448.539 258.675 431.726 262.738 432.097 262.643 415.784 267.018 416.117 266.925 400.305 271.55 400.652 271.444 385.339 276.319 385.72 276.192 370.97 281.317 371.335 281.185 357.21 286.498 357.598 286.346 344.098 291.846 344.565 291.646 331.69 297.396 332.152 297.181 320.089 303.056 320.587 302.802 309.212 308.865 312.725 306.292 297.574 321.12ZM331.922 328.036 237.5 368.833 261.516 268.817ZM1034.83 267.602 1059.5 367.458 964.812 327.281Z" fill="#001489"/></g></svg>