<svg viewBox="0 0 876.282 283.465" xmlns="http://www.w3.org/2000/svg" xmlns:xlink="http://www.w3.org/1999/xlink" id="UCB_Logo" overflow="hidden"><defs></defs><path d="M237.633 71.2944 240.7 71.2944 240.7 121.209 237.633 121.209Z" fill="#001489"/><path d="M251.153 85.5555 254.147 85.5555 254.147 91.8305C254.148 92.8121 254.053 93.7914 253.862 94.7542L254.005 94.7542C256.567 88.6709 262.521 84.7113 269.122 84.7 278.392 84.7 280.888 90.1906 280.888 98.605L280.888 121.209 277.893 121.209 277.893 99.6747C277.893 93.4712 277.108 87.6236 269.122 87.6236 262.316 87.7288 256.419 92.3704 254.718 98.9618 254.305 100.544 254.113 102.175 254.147 103.81L254.147 121.209 251.153 121.209Z" fill="#001489"/><path d="M288.174 114.649C291.113 117.559 295.091 119.176 299.227 119.142 303.577 119.142 307.428 116.86 307.428 112.439 307.428 103.383 287.818 105.95 287.818 94.3268 287.818 87.9805 293.166 84.6999 299.227 84.6999 306.5 84.6999 309.78 88.5507 309.78 88.5507L307.997 90.9748C307.997 90.9748 305.074 87.6236 299.013 87.6236 294.949 87.6236 290.956 89.4776 290.956 94.1127 290.956 103.383 310.565 100.602 310.565 112.439 310.565 118.143 305.716 122.065 299.155 122.065 290.528 122.065 286.249 116.931 286.249 116.931Z" fill="#001489"/><path d="M316.966 85.5555 319.962 85.5555 319.962 89.8345C319.966 90.7892 319.894 91.7426 319.748 92.686L319.891 92.686C319.891 92.686 322.814 84.6999 332.726 84.6999 342.281 84.6999 348.127 92.33 348.127 103.383 348.127 114.72 341.497 122.065 332.298 122.065 326.911 122.082 322.02 118.924 319.819 114.007L319.677 114.007C319.875 115.041 319.971 116.092 319.962 117.145L319.962 135.472 316.966 135.472ZM332.298 119.142C339.286 119.142 344.99 113.366 344.99 103.383 344.99 93.7558 339.857 87.6236 332.583 87.6236 326.022 87.6236 319.891 92.2586 319.891 103.454 319.891 111.369 324.311 119.142 332.298 119.142Z" fill="#001489"/><path d="M355 71.2944 358.566 71.2944 358.566 76.4996 355 76.4996ZM355.286 85.5555 358.281 85.5555 358.281 121.209 355.286 121.209Z" fill="#001489"/><path d="M367.407 85.5555 370.402 85.5555 370.402 92.3301C370.403 93.3117 370.307 94.291 370.116 95.2539L370.259 95.2539C372.042 89.7632 376.035 85.2709 381.668 85.2709 382.363 85.2779 383.055 85.3492 383.737 85.4841L383.737 88.4793C383.194 88.393 382.646 88.3453 382.097 88.3365 376.535 88.3365 373.041 93.043 371.471 98.3195 370.742 100.748 370.382 103.272 370.402 105.807L370.402 121.209 367.407 121.209Z" fill="#001489"/><path d="M401.548 84.6999C411.246 84.6999 416.095 92.3301 416.095 100.958 416.095 101.743 415.952 102.883 415.952 102.883L387.358 102.883C387.358 113.223 394.346 119.142 402.618 119.142 406.741 119.111 410.695 117.503 413.671 114.649L415.311 117.145C411.811 120.262 407.304 122.009 402.618 122.065 392.563 122.065 384.221 114.791 384.221 103.454 384.221 91.4031 392.421 84.6999 401.548 84.6999ZM412.957 100.102C412.601 91.4031 407.395 87.4809 401.477 87.4809 394.916 87.4809 388.856 91.7599 387.572 100.102Z" fill="#001489"/><path d="M436.85 84.6999C445.835 84.6999 449.188 92.7575 449.188 92.7575L449.33 92.7575C449.139 91.7949 449.044 90.8159 449.045 89.8346L449.045 71.2944 452.039 71.2944 452.039 121.209 449.045 121.209 449.045 116.717C449.033 115.806 449.129 114.896 449.33 114.007L449.188 114.007C446.921 119.065 441.82 122.25 436.281 122.065 426.725 122.065 420.878 114.435 420.878 103.383 420.878 92.0446 427.51 84.6999 436.85 84.6999ZM436.423 119.142C442.983 119.142 449.116 114.507 449.116 103.311 449.116 95.3966 445.051 87.6237 436.708 87.6237 429.72 87.6237 424.016 93.3999 424.016 103.383 424.016 113.009 429.149 119.142 436.423 119.142Z" fill="#001489"/><path d="M481.486 71.2944 484.482 71.2944 484.482 89.8346C484.483 90.8159 484.387 91.7949 484.196 92.7575L484.339 92.7575C486.605 87.6989 491.706 84.5142 497.246 84.6999 506.8 84.6999 512.647 92.3301 512.647 103.383 512.647 114.72 506.016 122.065 496.675 122.065 487.69 122.065 484.339 114.007 484.339 114.007L484.196 114.007C484.395 115.041 484.49 116.092 484.482 117.145L484.482 121.209 481.486 121.209ZM496.817 119.142C503.805 119.142 509.51 113.366 509.51 103.383 509.51 93.7558 504.376 87.6236 497.103 87.6236 490.542 87.6236 484.41 92.2586 484.41 103.454 484.41 111.369 488.473 119.142 496.817 119.142Z" fill="#001489"/><path d="M514.257 131.62C515.514 132.643 517.062 133.242 518.679 133.332 522.102 133.332 524.241 130.265 525.667 126.914L528.235 120.995 513.474 85.5555 516.682 85.5555 528.447 114.007C529.161 115.718 529.732 117.358 529.732 117.358L529.875 117.358C529.875 117.358 530.372 115.718 531.086 114.007L542.853 85.5555 546.061 85.5555 527.735 129.552C526.166 133.26 523.17 136.184 518.679 136.184 516.588 136.161 514.561 135.46 512.903 134.187Z" fill="#001489"/><path d="M568.093 85.1281 574.439 85.1281 574.439 88.1938C574.437 89.0754 574.389 89.9563 574.296 90.8329L574.439 90.8329C574.439 90.8329 577.506 84.2726 586.562 84.2726 596.259 84.2726 602.392 91.9732 602.392 103.169 602.392 114.649 595.475 122.065 586.062 122.065 581.586 122.204 577.375 119.949 575.01 116.147L574.867 116.147C574.867 116.147 575.01 117.43 575.01 119.284L575.01 135.472 568.093 135.472ZM584.994 116.147C590.697 116.147 595.404 111.44 595.404 103.24 595.404 95.3966 591.196 90.3333 585.206 90.3333 579.787 90.3333 574.796 94.1127 574.796 103.311 574.796 109.729 578.361 116.147 584.994 116.147Z" fill="#001489"/><path d="M626.776 98.6764 628.346 98.6764 628.346 98.0349C628.346 92.116 624.993 90.1192 620.43 90.1192 616.807 90.2619 613.307 91.4781 610.375 93.6132L607.524 88.5507C611.444 85.722 616.167 84.2228 621.001 84.2726 630.129 84.2726 635.263 89.2636 635.263 98.3909L635.263 121.209 628.844 121.209 628.844 117.787C628.841 116.834 628.889 115.882 628.987 114.934L628.844 114.934C626.736 119.38 622.213 122.173 617.293 122.065 611.089 122.065 605.027 118.285 605.027 111.083 605.027 99.1751 620.716 98.6764 626.776 98.6764ZM618.791 116.503C624.638 116.503 628.417 110.371 628.417 105.023L628.417 103.882 626.635 103.882C621.428 103.882 612.017 104.238 612.017 110.727 612.017 113.651 614.297 116.503 618.791 116.503Z" fill="#001489"/><path d="M643.312 91.1889 638.607 91.1889 638.607 85.6269 643.526 85.6269 643.526 75.2166 650.229 75.2166 650.229 85.6269 658.928 85.6269 658.928 91.1889 650.229 91.1889 650.229 107.234C650.229 114.435 655.291 115.362 657.93 115.362 658.48 115.369 659.03 115.321 659.57 115.22L659.57 121.352C658.766 121.451 657.956 121.499 657.145 121.495 652.511 121.495 643.312 120.068 643.312 108.018Z" fill="#001489"/><path d="M663.534 70.8661 670.522 70.8661 670.522 77.9262 663.534 77.9262ZM663.605 85.1281 670.522 85.1281 670.522 121.209 663.605 121.209Z" fill="#001489"/><path d="M694.03 84.2726C704.228 84.2726 709.648 91.8305 709.648 101.172 709.648 102.099 709.433 104.167 709.433 104.167L683.12 104.167C683.477 112.082 689.111 116.075 695.527 116.075 699.47 115.941 703.247 114.455 706.225 111.868L709.077 116.931C705.179 120.254 700.223 122.075 695.101 122.065 683.763 122.065 675.99 113.865 675.99 103.169 675.99 91.6886 683.763 84.2726 694.03 84.2726ZM702.588 98.9618C702.374 92.7575 698.523 89.7632 693.888 89.7632 688.611 89.7632 684.334 93.043 683.335 98.9618Z" fill="#001489"/><path d="M715.344 85.1281 722.046 85.1281 722.046 89.906C722.044 90.7873 721.997 91.6679 721.903 92.5442L722.046 92.5442C724.555 87.3736 729.849 84.1414 735.595 84.2726 744.08 84.2726 748.002 88.9076 748.002 98.1063L748.002 121.209 741.086 121.209 741.086 99.6747C741.086 94.6115 740.015 90.6188 734.239 90.6188 728.869 90.6309 724.182 94.2632 722.831 99.4606 722.409 101.041 722.217 102.674 722.26 104.31L722.26 121.209 715.344 121.209Z" fill="#001489"/><path d="M756.05 91.1889 751.345 91.1889 751.345 85.6269 756.264 85.6269 756.264 75.2166 762.968 75.2166 762.968 85.6269 771.667 85.6269 771.667 91.1889 762.968 91.1889 762.968 107.234C762.968 114.435 768.031 115.362 770.668 115.362 771.219 115.369 771.768 115.321 772.31 115.22L772.31 121.352C771.505 121.451 770.695 121.499 769.885 121.495 765.249 121.495 756.05 120.068 756.05 108.018Z" fill="#001489"/><path d="M778.148 111.868C780.951 114.508 784.638 116.008 788.487 116.075 791.482 116.075 794.478 114.507 794.478 111.583 794.478 104.951 775.938 106.307 775.938 94.5401 775.938 87.9805 781.785 84.2726 788.987 84.2726 796.901 84.2726 800.609 88.2652 800.609 88.2652L797.829 93.4712C795.357 91.3355 792.182 90.192 788.916 90.2619 785.92 90.2619 782.997 91.5458 782.997 94.6828 782.997 101.172 801.537 99.7461 801.537 111.583 801.537 117.572 796.403 122.065 788.487 122.065 783.409 122.166 778.493 120.272 774.796 116.788Z" fill="#001489"/><path d="M807.618 113.865 814.891 113.865 814.891 121.209 807.618 121.209Z" fill="#001489"/><path d="M237.633 147.709 253.322 147.709C268.153 147.709 278.208 156.836 278.208 172.667 278.208 188.568 268.153 197.624 253.322 197.624L237.633 197.624ZM252.823 194.771C266.086 194.771 274.999 186.999 274.999 172.667 274.999 158.405 266.086 150.561 252.823 150.561L240.7 150.561 240.7 194.771Z" fill="#001489"/><path d="M286.364 161.97 289.36 161.97 289.36 168.745C289.361 169.726 289.265 170.705 289.074 171.668L289.217 171.668C290.999 166.178 294.992 161.685 300.626 161.685 301.32 161.692 302.012 161.764 302.693 161.899L302.693 164.894C302.15 164.807 301.602 164.76 301.053 164.751 295.491 164.751 291.997 169.457 290.428 174.734 289.7 177.162 289.339 179.686 289.359 182.221L289.359 197.624 286.363 197.624Z" fill="#001489"/><path d="M306.993 147.709 310.558 147.709 310.558 152.914 306.993 152.914ZM307.277 161.97 310.272 161.97 310.272 197.624 307.277 197.624Z" fill="#001489"/><path d="M314.686 161.97 317.894 161.97 328.875 189.923C329.518 191.634 330.087 193.773 330.087 193.773L330.23 193.773C330.23 193.773 330.801 191.634 331.442 189.923L342.423 161.97 345.561 161.97 331.585 197.624 328.733 197.624Z" fill="#001489"/><path d="M363.672 161.114C373.37 161.114 378.219 168.745 378.219 177.372 378.219 178.157 378.076 179.298 378.076 179.298L349.482 179.298C349.482 189.637 356.47 195.556 364.742 195.556 368.865 195.525 372.82 193.917 375.795 191.063L377.435 193.56C373.936 196.677 369.428 198.424 364.742 198.479 354.687 198.479 346.345 191.206 346.345 179.869 346.345 167.818 354.545 161.114 363.672 161.114ZM375.081 176.517C374.725 167.818 369.519 163.895 363.601 163.895 357.041 163.895 350.98 168.174 349.696 176.517Z" fill="#001489"/><path d="M385.191 161.97 388.186 161.97 388.186 168.245C388.187 169.227 388.092 170.206 387.901 171.169L388.043 171.169C390.606 165.085 396.56 161.125 403.161 161.114 412.431 161.114 414.926 166.605 414.926 175.019L414.926 197.624 411.932 197.624 411.932 176.089C411.932 169.886 411.146 164.038 403.161 164.038 396.354 164.143 390.458 168.785 388.756 175.376 388.344 176.958 388.152 178.59 388.186 180.225L388.186 197.624 385.191 197.624Z" fill="#001489"/><path d="M443.875 147.709 446.871 147.709 446.871 166.249C446.872 167.23 446.776 168.209 446.585 169.172L446.728 169.172C448.994 164.113 454.095 160.929 459.635 161.114 469.188 161.114 475.036 168.745 475.036 179.797 475.036 191.135 468.405 198.479 459.063 198.479 450.079 198.479 446.728 190.422 446.728 190.422L446.585 190.422C446.784 191.456 446.879 192.507 446.87 193.56L446.87 197.624 443.874 197.624ZM459.206 195.556C466.194 195.556 471.899 189.78 471.899 179.797 471.899 170.17 466.765 164.038 459.492 164.038 452.93 164.038 446.799 168.673 446.799 179.869 446.799 187.783 450.862 195.556 459.206 195.556Z" fill="#001489"/><path d="M476.646 208.035C477.903 209.057 479.45 209.656 481.068 209.746 484.49 209.746 486.63 206.68 488.056 203.328L490.623 197.409 475.863 161.97 479.071 161.97 490.836 190.422C491.55 192.133 492.121 193.773 492.121 193.773L492.263 193.773C492.263 193.773 492.761 192.133 493.475 190.422L505.241 161.97 508.45 161.97 490.124 205.967C488.555 209.675 485.559 212.598 481.068 212.598 478.977 212.575 476.951 211.874 475.292 210.602Z" fill="#001489"/><path d="M530.91 188.282C533.713 190.922 537.4 192.422 541.249 192.49 544.244 192.49 547.24 190.921 547.24 187.998 547.24 181.366 528.7 182.721 528.7 170.955 528.7 164.395 534.547 160.687 541.749 160.687 549.663 160.687 553.371 164.68 553.371 164.68L550.591 169.886C548.119 167.75 544.943 166.606 541.678 166.676 538.682 166.676 535.759 167.96 535.759 171.097 535.759 177.586 554.299 176.161 554.299 187.997 554.299 193.987 549.165 198.479 541.249 198.479 536.171 198.58 531.255 196.686 527.557 193.203Z" fill="#001489"/><path d="M576.004 160.687C585.06 160.687 589.551 165.964 589.551 165.964L586.271 170.813C583.594 168.209 580.022 166.729 576.288 166.676 569.014 166.676 563.738 172.096 563.738 179.512 563.738 186.856 569.014 192.49 576.502 192.49 580.695 192.361 584.677 190.625 587.626 187.641L590.408 192.704C586.594 196.512 581.392 198.598 576.004 198.479 564.666 198.479 556.679 190.422 556.679 179.583 556.679 168.887 564.666 160.687 576.004 160.687Z" fill="#001489"/><path d="M594.627 147.281 601.615 147.281 601.615 154.341 594.627 154.341ZM594.699 161.543 601.615 161.543 601.615 197.624 594.699 197.624Z" fill="#001489"/><path d="M625.126 160.687C635.322 160.687 640.741 168.245 640.741 177.586 640.741 178.513 640.527 180.581 640.527 180.581L614.216 180.581C614.572 188.496 620.204 192.49 626.623 192.49 630.565 192.355 634.341 190.87 637.318 188.282L640.172 193.345C636.273 196.668 631.317 198.489 626.194 198.479 614.856 198.479 607.085 190.279 607.085 179.583 607.085 168.103 614.856 160.687 625.126 160.687ZM633.682 175.376C633.468 169.172 629.617 166.178 624.983 166.178 619.706 166.178 615.427 169.457 614.43 175.376Z" fill="#001489"/><path d="M646.437 161.543 653.139 161.543 653.139 166.32C653.138 167.202 653.09 168.082 652.997 168.959L653.139 168.959C655.648 163.788 660.943 160.556 666.688 160.687 675.173 160.687 679.096 165.322 679.096 174.521L679.096 197.624 672.179 197.624 672.179 176.089C672.179 171.026 671.108 167.033 665.332 167.033 659.962 167.045 655.276 170.678 653.924 175.875 653.503 177.456 653.31 179.089 653.353 180.724L653.353 197.624 646.437 197.624Z" fill="#001489"/><path d="M703.447 160.687C712.503 160.687 716.994 165.964 716.994 165.964L713.714 170.813C711.037 168.209 707.465 166.729 703.73 166.676 696.457 166.676 691.181 172.096 691.181 179.512 691.181 186.856 696.457 192.49 703.945 192.49 708.138 192.361 712.12 190.625 715.069 187.641L717.851 192.704C714.037 196.512 708.835 198.598 703.447 198.479 692.109 198.479 684.121 190.422 684.121 179.583 684.121 168.887 692.108 160.687 703.447 160.687Z" fill="#001489"/><path d="M737.324 160.687C747.52 160.687 752.939 168.245 752.939 177.586 752.939 178.513 752.725 180.581 752.725 180.581L726.414 180.581C726.771 188.496 732.402 192.49 738.821 192.49 742.763 192.355 746.539 190.87 749.517 188.282L752.37 193.345C748.472 196.668 743.515 198.489 738.393 198.479 727.054 198.479 719.283 190.279 719.283 179.583 719.283 168.103 727.054 160.687 737.324 160.687ZM745.88 175.376C745.666 169.172 741.815 166.178 737.181 166.178 731.904 166.178 727.625 169.457 726.628 175.376Z" fill="#001489"/><path d="M758.486 190.279 765.759 190.279 765.759 197.624 758.486 197.624Z" fill="#001489"/><path d="M124.961 71.294 124.147 71.294 124.147 122.05 122.344 122.05 122.344 137.842 115.803 137.842 115.803 122.05 107.456 122.05 107.456 146.864 124.147 146.864 124.147 197.623 124.962 197.623 124.962 146.864 131.366 146.864 131.366 122.05 124.962 122.05 124.961 71.294Z" fill="#001489"/><path d="M114.718 71.2944 61.391 71.2944 61.391 124.623C65.6817 97.1431 87.2383 75.5858 114.718 71.2944Z" fill="#001489"/><path d="M187.72 124.623 187.718 71.2944 134.39 71.2944C161.87 75.5859 183.428 97.1431 187.72 124.623Z" fill="#001489"/><path d="M61.391 144.292 61.391 197.623 114.719 197.623C87.2384 193.33 65.6814 171.772 61.391 144.292Z" fill="#001489"/><path d="M134.392 197.623 187.72 197.624 187.72 144.292C183.428 171.772 161.871 193.329 134.392 197.623Z" fill="#001489"/><path d="M165.954 122.05 165.954 108.064 156.93 108.064 156.93 146.864 181.294 146.864 181.294 122.05ZM172.947 137.842 165.954 137.842 165.954 131.075 172.947 131.075Z" fill="#001489"/><path d="M154.224 137.843 143.396 137.843 143.396 131.076 154.224 131.076 154.224 122.052 134.371 122.052 134.371 146.866 154.224 146.866 154.224 137.843Z" fill="#001489"/></svg>